<?xml version="1.0" encoding="UTF-8"?>
<svg width="21px" height="20px" viewBox="0 0 21 20" version="1.1" xmlns="http://www.w3.org/2000/svg" xmlns:xlink="http://www.w3.org/1999/xlink">
    <!-- Generator: Sketch 52.2 (67145) - http://www.bohemiancoding.com/sketch -->
    <title>flaticon1538988757-svg</title>
    <desc>Created with Sketch.</desc>
    <g id="Pages" stroke="none" stroke-width="1" fill="none" fill-rule="evenodd">
        <g id="Homepage" transform="translate(-1167.000000, -392.000000)" fill="#9B9B9B" fill-rule="nonzero">
            <g id="Group-30" transform="translate(1020.000000, 392.000000)">
                <g id="Group-29" transform="translate(52.000000, 0.000000)">
                    <g id="flaticon1538988757-svg" transform="translate(95.333333, 0.000000)">
                        <path d="M4.36509804,5.53872549 L0.576437908,5.53872549 C0.317320261,5.53872549 0.107026144,5.74901961 0.107026144,6.00813725 L0.107026144,19.2522876 C0.107026144,19.5113725 0.317320261,19.7216667 0.576437908,19.7216667 L4.36558824,19.7216667 C4.62470588,19.7216667 4.835,19.5113399 4.835,19.2522876 L4.835,6.00816993 C4.83454248,5.74856209 4.62470588,5.53872549 4.36509804,5.53872549 Z M3.89568627,18.7828758 L1.04539216,18.7828758 L1.04539216,6.4775817 L3.89568627,6.4775817 L3.89568627,18.7828758 Z M14.9288889,5.3777451 C13.0892157,5.3777451 11.8856536,6.17153595 11.1866667,6.86202614 L11.1002941,5.96310458 C11.0767974,5.72183007 10.8740196,5.53875817 10.6332026,5.53875817 L10.6238235,5.53875817 L7.16986928,5.60493464 C7.04313725,5.60728758 6.92294118,5.66078431 6.83656863,5.75326797 C6.74973856,5.84575163 6.70418301,5.96918301 6.7098366,6.0954902 C6.75303922,7.06248366 6.75163399,8.19284314 6.74973856,9.50156863 L6.74924837,19.3189869 C6.74924837,19.5781373 6.95957516,19.788366 7.21866013,19.788366 L11.0078431,19.788366 C11.2669608,19.788366 11.4772549,19.5781046 11.4772549,19.3189869 L11.4772549,11.6627778 C11.4772549,11.2717647 11.5110458,10.9891503 11.5781699,10.8206209 C11.8143137,10.2193137 12.5935294,9.59777778 13.4882353,9.59777778 C14.6472222,9.59777778 15.3386601,10.4793464 15.3386601,11.956634 L15.3386601,19.3189542 C15.3386601,19.5781046 15.5489869,19.7883333 15.8080719,19.7883333 L19.5305556,19.7883333 C19.7896732,19.7883333 19.9999673,19.5780719 19.9999673,19.3189542 L19.9999673,11.4759477 C20,7.65722222 18.1040196,5.3777451 14.9288889,5.3777451 Z M19.0611438,18.8495752 L16.2774837,18.8495752 L16.2774837,11.956634 C16.2774837,9.95313725 15.1823203,8.65895425 13.4882026,8.65895425 C12.1437908,8.65895425 11.0505229,9.59591503 10.7055229,10.4751307 C10.5914379,10.7600654 10.5383987,11.1379739 10.5383987,11.6627778 L10.5383987,18.8495752 L7.68810458,18.8495752 L7.68859477,9.50297386 C7.69,8.39137255 7.69140523,7.40748366 7.66558824,6.53437908 L10.2074837,6.48555556 L10.3534967,7.99944444 C10.3769608,8.24026144 10.579281,8.42379085 10.8210458,8.42379085 L10.900817,8.42379085 C11.0627778,8.42379085 11.2130065,8.34071895 11.2989216,8.20316993 C11.5758824,7.76052288 12.6559804,6.31660131 14.9293791,6.31660131 C17.5557843,6.31660131 19.0616667,8.19705882 19.0616667,11.4759804 L19.0616667,18.8496078 L19.0611438,18.8496078 L19.0611438,18.8495752 Z M2.6296732,0.0155882353 C1.10594771,0.0155882353 0,1.06565359 0,2.51287582 C0,3.95915033 1.08388889,5.00875817 2.5770915,5.00875817 C4.11630719,5.00875817 5.23352941,3.95915033 5.23352941,2.50160131 C5.19928105,1.03797386 4.12852941,0.0155882353 2.6296732,0.0155882353 Z M2.5770915,4.06993464 C1.6124183,4.06993464 0.938823529,3.42964052 0.938823529,2.51287582 C0.938823529,1.58062092 1.61852941,0.954411765 2.6296732,0.954411765 C3.61872549,0.954411765 4.27261438,1.57029412 4.29470588,2.51287582 C4.29470588,3.44421569 3.60418301,4.06993464 2.5770915,4.06993464 Z" id="Shape"></path>
                    </g>
                </g>
            </g>
        </g>
    </g>
</svg>