<?xml version="1.0" encoding="UTF-8"?>
<svg width="22px" height="20px" viewBox="0 0 22 20" version="1.1" xmlns="http://www.w3.org/2000/svg" xmlns:xlink="http://www.w3.org/1999/xlink">
    <!-- Generator: Sketch 52.2 (67145) - http://www.bohemiancoding.com/sketch -->
    <title>flaticon1538833922-svg</title>
    <desc>Created with Sketch.</desc>
    <g id="Pages" stroke="none" stroke-width="1" fill="none" fill-rule="evenodd">
        <g id="Homepage" transform="translate(-516.000000, -135.000000)" fill="#000000" fill-rule="nonzero">
            <g id="Group-26" transform="translate(450.000000, 112.000000)">
                <g id="flaticon1538833922-svg" transform="translate(66.000000, 23.000000)">
                    <path d="M11.1384925,8.43679705 C10.907168,8.66812154 10.907168,9.03911365 11.1384925,9.27043814 C12.0943428,10.2262884 12.0943428,11.7800906 11.1384925,12.7359409 L6.11918751,17.7552459 C5.16333725,18.7110962 3.609535,18.7110962 2.65368474,17.7552459 L1.89860668,17.0001679 C0.942756421,16.0443176 0.942756421,14.4905154 1.89860668,13.5346651 L6.9179117,8.51536008 C7.14923619,8.28403559 7.14923619,7.91304348 6.9179117,7.68171899 C6.68658721,7.45039449 6.3155951,7.45039449 6.08427061,7.68171899 L1.06496559,12.701024 C0.379721336,13.3862683 0,14.2984724 0,15.2674165 C0,16.2363606 0.375356723,17.1485647 1.06496559,17.833809 L1.82004365,18.588887 C2.52711096,19.2959543 3.45677354,19.649488 4.38643613,19.649488 C5.31609871,19.649488 6.24576129,19.2959543 6.95282861,18.588887 L11.9721336,13.569582 C13.3862683,12.1554474 13.3862683,9.85093168 11.9721336,8.43679705 C11.7451737,8.20547255 11.369817,8.20547255 11.1384925,8.43679705 Z" id="Shape"></path>
                    <path d="M20.0117509,1.84186671 L19.2566728,1.08678865 C17.8425382,-0.32734598 15.5380225,-0.32734598 14.1238879,1.08678865 L9.10458284,6.10609367 C7.69044821,7.5202283 7.69044821,9.824744 9.10458284,11.2388786 C9.33590734,11.4702031 9.70689945,11.4702031 9.93822394,11.2388786 C10.1695484,11.0075541 10.1695484,10.636562 9.93822394,10.4052375 C8.98237368,9.44938728 8.98237368,7.89558503 9.93822394,6.93973477 L14.957529,1.92042975 C15.9133792,0.964579486 17.4671815,0.964579486 18.4230317,1.92042975 L19.1781098,2.67550781 C20.13396,3.63135807 20.13396,5.18516032 19.1781098,6.14101058 L14.1588048,11.1603156 C13.9274803,11.3916401 13.9274803,11.7626322 14.1588048,11.9939567 C14.2722847,12.1074366 14.4250462,12.1685412 14.573443,12.1685412 C14.7218399,12.1685412 14.8746013,12.1118012 14.9880812,11.9939567 L20.0073863,6.97465167 C20.6926305,6.28940742 21.0723519,5.37720329 21.0723519,4.40825919 C21.0723519,3.43931509 20.6969951,2.52711096 20.0117509,1.84186671 Z" id="Shape"></path>
                </g>
            </g>
        </g>
    </g>
</svg>
