<?xml version="1.0" encoding="UTF-8"?>
<svg width="26px" height="20px" viewBox="0 0 26 20" version="1.1" xmlns="http://www.w3.org/2000/svg" xmlns:xlink="http://www.w3.org/1999/xlink">
    <!-- Generator: Sketch 52.2 (67145) - http://www.bohemiancoding.com/sketch -->
    <title>flaticon1538833783-svg</title>
    <desc>Created with Sketch.</desc>
    <g id="Pages" stroke="none" stroke-width="1" fill="none" fill-rule="evenodd">
        <g id="Homepage" transform="translate(-470.000000, -135.000000)" fill="#9B9B9B" fill-rule="nonzero">
            <g id="Group-26" transform="translate(450.000000, 112.000000)">
                <g id="flaticon1538833783-svg" transform="translate(20.000000, 23.000000)">
                    <path d="M24.7826087,0 L0.434782609,0 C0.194782609,0 0,0.194347826 0,0.434782609 L0,19.5652174 C0,19.8056522 0.194782609,20 0.434782609,20 L24.7826087,20 C25.0226087,20 25.2173913,19.8056522 25.2173913,19.5652174 L25.2173913,0.434782609 C25.2173913,0.194347826 25.0226087,0 24.7826087,0 Z M24.3478261,19.1304348 L0.869565217,19.1304348 L0.869565217,0.869565217 L24.3478261,0.869565217 L24.3478261,19.1304348 Z" id="Shape"></path>
                    <path d="M6.95652174,9.62521739 C8.29173913,9.62521739 9.37782609,8.53913043 9.37782609,7.20434783 C9.37782609,5.86869565 8.29173913,4.7826087 6.95652174,4.7826087 C5.62130435,4.7826087 4.53521739,5.86869565 4.53521739,7.20391304 C4.53521739,8.53913043 5.62130435,9.62521739 6.95652174,9.62521739 Z M6.95652174,5.65217391 C7.81217391,5.65217391 8.50826087,6.34869565 8.50826087,7.20391304 C8.50826087,8.05913043 7.81217391,8.75565217 6.95652174,8.75565217 C6.10086957,8.75565217 5.40478261,8.05956522 5.40478261,7.20434783 C5.40478261,6.34913043 6.10086957,5.65217391 6.95652174,5.65217391 Z" id="Shape"></path>
                    <path d="M3.04347826,17.3913043 C3.14521739,17.3913043 3.24782609,17.3556522 3.33043478,17.2830435 L10.4230435,11.0386957 L14.9021739,15.5173913 C15.0721739,15.6873913 15.3469565,15.6873913 15.5169565,15.5173913 C15.6869565,15.3473913 15.6869565,15.0726087 15.5169565,14.9026087 L13.4269565,12.8126087 L17.4186957,8.44130435 L22.3147826,12.9295652 C22.4917391,13.0917391 22.7669565,13.0795652 22.9291304,12.9026087 C23.0913043,12.7256522 23.0795652,12.4504348 22.9021739,12.2882609 L17.6847826,7.50565217 C17.5995652,7.42782609 17.486087,7.38913043 17.3717391,7.39173913 C17.2565217,7.39695652 17.1478261,7.44782609 17.07,7.53304348 L12.8117391,12.1969565 L10.7495652,10.1347826 C10.5869565,9.9726087 10.3269565,9.96434783 10.1547826,10.1156522 L2.75608696,16.63 C2.57565217,16.7886957 2.55826087,17.0634783 2.71695652,17.243913 C2.80304348,17.3417391 2.92304348,17.3913043 3.04347826,17.3913043 Z" id="Shape"></path>
                </g>
            </g>
        </g>
    </g>
</svg>