<?xml version="1.0" encoding="UTF-8"?>
<svg width="21px" height="20px" viewBox="0 0 21 20" version="1.1" xmlns="http://www.w3.org/2000/svg" xmlns:xlink="http://www.w3.org/1999/xlink">
    <!-- Generator: Sketch 52.2 (67145) - http://www.bohemiancoding.com/sketch -->
    <title>flaticon1538988721-svg</title>
    <desc>Created with Sketch.</desc>
    <g id="Pages" stroke="none" stroke-width="1" fill="none" fill-rule="evenodd">
        <g id="Homepage" transform="translate(-1119.000000, -392.000000)" fill="#9B9B9B" fill-rule="nonzero">
            <g id="Group-30" transform="translate(1020.000000, 392.000000)">
                <g id="Group-29" transform="translate(52.000000, 0.000000)">
                    <g id="flaticon1538988721-svg" transform="translate(47.666667, 0.000000)">
                        <path d="M19.3755556,0.917037037 C19.0540741,0.497037037 18.5555556,0.256296296 18.0074074,0.256296296 C17.6533333,0.256296296 17.2866667,0.354814815 16.917037,0.548888889 L1.18,8.8 C0.0614814815,9.38740741 -0.0162962963,10.2718519 0.00222222222,10.6244444 C0.02,10.9792593 0.191111111,11.8496296 1.36444444,12.3155556 L3.37555556,13.1111111 C3.75703704,13.2622222 4.1837037,13.34 4.64296296,13.34 C4.71555556,13.34 4.78518519,13.3303704 4.85703704,13.3266667 C4.82962963,13.3622222 4.7962963,13.3896296 4.77111111,13.4266667 C4.3962963,13.9874074 4.37777778,14.7474074 4.71703704,15.5659259 C4.72222222,15.58 4.72740741,15.5918519 4.73259259,15.6037037 C5.32740741,16.9214815 5.98888889,18.4088889 6.06888889,18.6155556 C6.26592593,19.1296296 6.76814815,19.4837037 7.31925926,19.4837037 C8.16814815,19.4837037 8.42,19.0748148 9.80888889,16.8140741 C9.91703704,16.6481481 10.1577778,16.262963 10.1985185,15.7725926 C10.3607407,15.8385185 10.5133333,15.8992593 10.6437037,15.9518519 L12.8718519,16.86 C13.3185185,17.0422222 13.7096296,17.202963 13.9155556,17.2881481 C13.9792593,17.3274074 14.0466667,17.3607407 14.117037,17.3896296 C14.2740741,17.4518519 14.4414815,17.4837037 14.6096296,17.4837037 C15.622963,17.4837037 15.8659259,16.6059259 15.9962963,16.1355556 C16.0607407,15.902963 16.1496296,15.5807407 16.2451852,15.2251852 L19.6437037,2.73777778 C19.9,1.79481481 19.5851852,1.19259259 19.3755556,0.917037037 Z M8.68666667,16.102963 C8.68666667,16.102963 7.42592593,18.1555556 7.31851852,18.1555556 C7.31555556,18.1555556 7.31407407,18.1540741 7.31259259,18.1511111 C7.18888889,17.8185185 5.94296296,15.0577778 5.94296296,15.0577778 C5.71333333,14.5044444 5.75481481,14.0303704 6.14962963,14.0303704 C6.2362963,14.0303704 6.34,14.0533333 6.46148148,14.1037037 L7.42888889,14.6066667 C7.59037037,14.717037 7.76666667,14.8125926 7.96074074,14.8888889 L8.00962963,14.9074074 L8.10074074,14.9533333 C8.84814815,15.3488889 9.08592593,15.4918519 8.68666667,16.102963 Z M18.3622222,2.38814815 L14.9651852,14.8755556 C14.7733333,15.5792593 14.6133333,16.1548148 14.6103704,16.1548148 C14.6074074,16.1533333 14.6037037,16.14 14.6037037,16.1377778 C14.6037037,16.1333333 14.0496296,15.9066667 13.3725926,15.6296296 L11.142963,14.7214815 C10.4659259,14.4474074 9.35555556,14.0037037 8.67481481,13.7414815 L8.56222222,13.6962963 L8.14592593,13.48 C7.73333333,13.1637037 7.69703704,12.6422222 8.11185185,12.2 L15.0096296,4.81407407 C15.2866667,4.51851852 15.3911111,4.36592593 15.3311111,4.36592593 C15.2837037,4.36592593 15.1303704,4.46444444 14.8740741,4.66518519 L6.14666667,11.5496296 C5.76592593,11.8466667 5.18740741,12.0125926 4.6437037,12.0125926 C4.36518519,12.0125926 4.09481481,11.9681481 3.86444444,11.877037 L1.85481481,11.0822222 C1.17555556,10.8133333 1.14962963,10.317037 1.7962963,9.9762963 L17.5348148,1.7237037 C17.7162963,1.62888889 17.8755556,1.58444444 18.0074074,1.58444444 C18.3459259,1.58444444 18.5,1.88074074 18.3622222,2.38814815 Z" id="Shape"></path>
                    </g>
                </g>
            </g>
        </g>
    </g>
</svg>