<?xml version="1.0" encoding="UTF-8"?>
<svg width="24px" height="20px" viewBox="0 0 24 20" version="1.1" xmlns="http://www.w3.org/2000/svg" xmlns:xlink="http://www.w3.org/1999/xlink">
    <!-- Generator: Sketch 52.2 (67145) - http://www.bohemiancoding.com/sketch -->
    <title>flaticon1538988787-svg</title>
    <desc>Created with Sketch.</desc>
    <g id="Pages" stroke="none" stroke-width="1" fill="none" fill-rule="evenodd">
        <g id="Homepage" transform="translate(-1215.000000, -392.000000)" fill="#9B9B9B" fill-rule="nonzero">
            <g id="Group-30" transform="translate(1020.000000, 392.000000)">
                <g id="Group-29" transform="translate(52.000000, 0.000000)">
                    <g id="flaticon1538988787-svg" transform="translate(143.000000, 0.000000)">
                        <path d="M23.3613051,2.17109375 C23.241682,2.05147059 23.0422794,2.01158088 22.8827206,2.05147059 L22.0851103,2.33065257 C22.5636949,1.77233456 22.8827206,1.17412684 23.0821232,0.615808824 C23.1619026,0.41640625 23.1220129,0.256893382 23.0023438,0.137224265 C22.8827206,0.0176011029 22.683318,-0.0222886029 22.5237592,0.0574448529 C21.4071232,0.536029412 20.45,0.934834559 19.6523897,1.17408088 C19.6523897,1.21397059 19.6125,1.17408088 19.5726103,1.17408088 C18.9345129,0.815165441 17.379182,0.0175551471 16.262546,0.0175551471 C13.4310202,0.0574448529 11.1578585,2.45027574 11.1578585,5.36153493 L11.1578585,5.52104779 C7.01029412,4.7234375 4.73713235,3.52702206 2.26452206,0.934788603 L1.86580882,0.535983456 L1.62651654,1.01456801 C0.270588235,3.60680147 1.2277114,5.95974265 2.78304228,7.55496324 C2.0652114,7.43534007 1.58662684,7.19604779 1.14793199,6.83713235 C0.988419118,6.71750919 0.789016544,6.67761949 0.589613971,6.79724265 C0.430101103,6.87702206 0.350321691,7.11626838 0.390211397,7.31567096 C0.948529412,9.19002757 2.34434743,10.7055147 3.8597886,11.6227482 C3.14195772,11.6227482 2.54375,11.5429688 1.94554228,11.1441636 C1.78602941,11.0643842 1.54673713,11.0643842 1.38722426,11.1840533 C1.2277114,11.3037224 1.14793199,11.503079 1.2277114,11.7024816 C1.94554228,13.7363971 3.34136029,14.8131434 5.57467831,15.0923254 C4.41815257,15.7703125 2.9027114,16.3286305 0.549770221,16.3685202 C0.310477941,16.3685202 0.111075368,16.5280331 0.0313419118,16.7274357 C-0.0484375,16.9667279 0.0313419118,17.1661305 0.190854779,17.3256434 C1.6265625,18.4821691 4.81695772,19.1601562 8.76511949,19.1601562 C15.7840533,19.1601562 21.5268382,12.898943 21.5268382,5.20202206 L21.5268382,5.0823989 C22.4042279,4.64370404 23.1220588,3.80620404 23.4809743,2.64967831 C23.520818,2.49011949 23.4809283,2.29071691 23.3613051,2.17109375 Z M20.9684743,4.44425551 L20.729182,4.52403493 L20.729182,5.20202206 C20.729182,12.4602482 15.3453125,18.362546 8.76507353,18.362546 C5.1359375,18.362546 2.70326287,17.7643382 1.38722426,17.1262408 C4.13897059,16.9268382 5.73419118,16.0494485 6.97049632,15.0923254 L7.96750919,14.3744945 L6.77109375,14.3744945 C4.49793199,14.3744945 3.10211397,13.7363971 2.30450368,12.2209559 C3.02233456,12.4602482 3.78005515,12.4602482 4.61755515,12.4203585 C4.93658088,12.3804688 5.25565257,12.3804688 5.57467831,12.3804688 L5.69430147,11.5828585 C4.17886029,11.1441636 2.38423713,9.78823529 1.50684743,7.95376838 C2.30445772,8.31268382 3.18180147,8.39246324 3.97941176,8.39246324 L5.21571691,8.39246324 L4.21875,7.6745864 C3.38125,7.07637868 0.908685662,4.96272978 2.1051011,1.93180147 C4.65744485,4.44425551 7.09016544,5.60078125 11.4769761,6.39839154 L11.9555607,6.47817096 L11.9555607,5.36153493 C11.9555607,2.88897059 13.869807,0.855055147 16.2626379,0.815165441 C17.1798713,0.775275735 18.6953585,1.61277574 19.1340074,1.85206801 C19.3732996,1.97169118 19.6125919,2.01158088 19.8518382,1.93184743 C20.450046,1.73244485 21.1678768,1.45326287 21.9654871,1.13423713 C21.6065717,1.73244485 21.1279871,2.29076287 20.4899357,2.80923713 C20.3304228,2.92886029 20.2905331,3.16815257 20.3703125,3.36755515 C20.4500919,3.56695772 20.6893382,3.64673713 20.8887408,3.56695772 L22.4440717,3.04852941 C22.1648897,3.56691176 21.7261949,4.16511949 20.9684743,4.44425551 Z" id="Shape"></path>
                    </g>
                </g>
            </g>
        </g>
    </g>
</svg>