<?xml version="1.0" encoding="UTF-8"?>
<svg width="3px" height="14px" viewBox="0 0 3 14" version="1.1" xmlns="http://www.w3.org/2000/svg" xmlns:xlink="http://www.w3.org/1999/xlink">
    <!-- Generator: Sketch 52.2 (67145) - http://www.bohemiancoding.com/sketch -->
    <title>flaticon1539678877-svg</title>
    <desc>Created with Sketch.</desc>
    <g id="Pages" stroke="none" stroke-width="1" fill="none" fill-rule="evenodd">
        <g id="Profile-#Follower" transform="translate(-30.000000, -91.000000)" fill="#000000" fill-rule="nonzero">
            <g id="Group-25" transform="translate(10.000000, 71.000000)">
                <g id="Group-4" transform="translate(20.000000, 20.000000)">
                    <g id="flaticon1539678877-svg">
                        <path d="M1.5,3 C2.3270625,3 3,2.3270625 3,1.5 C3,0.6729375 2.3270625,0 1.5,0 C0.6729375,0 0,0.6729375 0,1.5 C0,2.3270625 0.6729375,3 1.5,3 Z" id="Shape"></path>
                        <path d="M1.5,11 C0.6729375,11 0,11.6729375 0,12.5 C0,13.3270625 0.6729375,14 1.5,14 C2.3270625,14 3,13.3270625 3,12.5 C3,11.6729375 2.3270625,11 1.5,11 Z" id="Shape"></path>
                        <path d="M1.5,5.5 C0.6729375,5.5 0,6.1729375 0,7 C0,7.8270625 0.6729375,8.5 1.5,8.5 C2.3270625,8.5 3,7.8270625 3,7 C3,6.1729375 2.3270625,5.5 1.5,5.5 Z" id="Shape"></path>
                    </g>
                </g>
            </g>
        </g>
    </g>
</svg>