<?xml version="1.0" encoding="UTF-8"?>
<svg width="25px" height="22px" viewBox="0 0 25 22" version="1.1" xmlns="http://www.w3.org/2000/svg" xmlns:xlink="http://www.w3.org/1999/xlink">
    <!-- Generator: Sketch 52.2 (67145) - http://www.bohemiancoding.com/sketch -->
    <title>Group 23</title>
    <desc>Created with Sketch.</desc>
    <g id="Pages" stroke="none" stroke-width="1" fill="none" fill-rule="evenodd">
        <g id="Notifications" transform="translate(-390.000000, -316.000000)" fill="#4A4A4A" fill-rule="nonzero">
            <g id="Group-21-Copy" transform="translate(165.000000, 112.000000)">
                <g id="Group-20" transform="translate(0.000000, 48.000000)">
                    <g id="Group-19" transform="translate(125.000000, 154.000000)">
                        <g id="Icons-/-Comment-/-Black" transform="translate(100.000000, 2.000000)">
                            <g id="Group-23">
                                <g id="flaticon1539342479-svg">
                                    <path d="M3.84678373,9.02647803 L8.84760259,9.02647803 C9.06032973,9.02647803 9.23228096,8.85414212 9.23228096,8.64179966 C9.23228096,8.42945719 9.06032973,8.25712128 8.84760259,8.25712128 L3.84678373,8.25712128 C3.63405659,8.25712128 3.46210536,8.42945719 3.46210536,8.64179966 C3.46210536,8.85414212 3.63405659,9.02647803 3.84678373,9.02647803 Z" id="Shape"></path>
                                    <path d="M13.8484214,10.5651915 L3.84678373,10.5651915 C3.63405659,10.5651915 3.46210536,10.7375274 3.46210536,10.9498699 C3.46210536,11.1622124 3.63405659,11.3345483 3.84678373,11.3345483 L13.8484214,11.3345483 C14.0611486,11.3345483 14.2330998,11.1622124 14.2330998,10.9498699 C14.2330998,10.7375274 14.0611486,10.5651915 13.8484214,10.5651915 Z" id="Shape"></path>
                                    <path d="M13.8484214,12.8732618 L3.84678373,12.8732618 C3.63405659,12.8732618 3.46210536,13.0455977 3.46210536,13.2579401 C3.46210536,13.4702826 3.63405659,13.6426185 3.84678373,13.6426185 L13.8484214,13.6426185 C14.0611486,13.6426185 14.2330998,13.4702826 14.2330998,13.2579401 C14.2330998,13.0455977 14.0611486,12.8732618 13.8484214,12.8732618 Z" id="Shape"></path>
                                    <path d="M20.800329,0.20580293 L7.66663998,0.178875444 C6.4087417,0.178875444 5.38549723,1.20211992 5.38549723,2.4600182 L5.38549723,4.43111018 L2.28114275,4.43764971 C1.02324447,4.43764971 0,5.46089419 0,6.71879247 L0,14.851278 C0,16.1091762 1.02324447,17.132036 2.28114275,17.132036 L4.61614048,17.132036 L4.61614048,20.9788198 C4.61614048,21.1376919 4.71384879,21.2804076 4.86233464,21.3377247 C4.90734201,21.3550352 4.95427277,21.3634981 5.00081885,21.3634981 C5.10699008,21.3634981 5.21123792,21.3192601 5.28548085,21.2377083 L9.01839978,17.1312667 L15.4140624,17.1051085 C16.6719607,17.1051085 17.6952052,16.0818641 17.6952052,14.8243505 L17.6952052,14.7808818 L19.7186134,17.0066309 C19.7928563,17.0881827 19.8971042,17.1324207 20.0032754,17.1324207 C20.0498215,17.1324207 20.0967523,17.1239578 20.1417596,17.1066473 C20.2902455,17.0493302 20.3879538,16.9066145 20.3879538,16.7477423 L20.3879538,12.9009586 L20.7995596,12.9009586 C22.0574579,12.9009586 23.0807024,11.8777141 23.0807024,10.6202005 L23.0807024,2.48694568 C23.0807024,1.22943208 22.0578426,0.206187608 20.800329,0.20580293 Z M16.9258484,14.8239658 C16.9258484,15.6575638 16.2476605,16.3353671 15.4125237,16.3353671 L8.84606387,16.3622946 C8.73835393,16.3626793 8.63526012,16.408456 8.56294059,16.4880844 L5.38549723,19.9836568 L5.38549723,16.746973 C5.38549723,16.5346305 5.21354599,16.3622946 5.00081885,16.3622946 L2.28114275,16.3622946 C1.44754472,16.3622946 0.769356747,15.6841066 0.769356747,14.8508933 L0.769356747,6.71840779 C0.769356747,5.88480976 1.44754472,5.20662178 2.28191211,5.20662178 L5.7701756,5.19931289 C5.7701756,5.19931289 5.7701756,5.19931289 5.7701756,5.19931289 C5.77056028,5.19931289 5.77056028,5.19931289 5.77094496,5.19931289 L15.4140624,5.17930962 C16.2476605,5.17930962 16.9258484,5.85749759 16.9258484,6.69109563 L16.9258484,13.7849495 L16.9258484,14.8239658 Z M22.3113457,10.6194312 C22.3113457,11.4530292 21.6331577,12.1308325 20.7995596,12.1308325 L20.0032754,12.1308325 C19.7905483,12.1308325 19.618597,12.3031684 19.618597,12.5155109 L19.618597,15.7521947 L17.6952052,13.6364637 L17.6952052,6.6914803 C17.6952052,5.43358202 16.6719607,4.41033755 15.4132931,4.41033755 L6.15485397,4.42918679 L6.15485397,2.45963352 C6.15485397,1.62603548 6.83304195,0.947847512 7.66587062,0.947847512 L20.799175,0.974774998 C20.7995596,0.974774998 20.7995596,0.974774998 20.7999443,0.974774998 C21.6335424,0.974774998 22.3117303,1.65296297 22.3117303,2.48656101 L22.3117303,10.6194312 L22.3113457,10.6194312 Z" id="Shape"></path>
                                </g>
                            </g>
                        </g>
                    </g>
                </g>
            </g>
        </g>
    </g>
</svg>