<?xml version="1.0" encoding="UTF-8"?>
<svg width="92px" height="80px" viewBox="0 0 92 80" version="1.1" xmlns="http://www.w3.org/2000/svg" xmlns:xlink="http://www.w3.org/1999/xlink">
    <!-- Generator: Sketch 52.2 (67145) - http://www.bohemiancoding.com/sketch -->
    <title>flaticon1540815719-svg</title>
    <desc>Created with Sketch.</desc>
    <g id="Pages" stroke="none" stroke-width="1" fill="none" fill-rule="evenodd">
        <g id="Category" transform="translate(-674.000000, -514.000000)" fill="#ffffff" fill-rule="nonzero">
            <g id="Group-10" transform="translate(165.000000, 160.000000)">
                <g id="Group-11-Copy-2" transform="translate(380.000000, 286.000000)">
                    <g id="Icons-/-Businnes" transform="translate(129.000000, 68.000000)">
                        <g id="flaticon1540815719-svg">
                            <path d="M87.3846667,13.9746835 L84.3333333,13.9746835 L84.3333333,9.3164557 L69,9.3164557 L69,13.9746835 L62.8666667,13.9746835 L62.8666667,4.97809283 C62.8666667,2.23284388 60.6617333,0 57.9508,0 L34.0492,0 C31.3382667,0 29.1333333,2.23284388 29.1333333,4.97809283 L29.1333333,13.9746835 L23,13.9746835 L23,9.3164557 L7.66666667,9.3164557 L7.66666667,13.9746835 L4.61533333,13.9746835 C2.07153333,13.9746835 0,16.0724388 0,18.6484388 L0,74.5161181 C0,77.0921181 2.07153333,79.1898734 4.61533333,79.1898734 L87.3846667,79.1898734 C89.9284667,79.1898734 92,77.0921181 92,74.5161181 L92,18.6484388 C92,16.0724388 89.9284667,13.9746835 87.3846667,13.9746835 Z M72.0666667,12.4219409 L81.2666667,12.4219409 L81.2666667,13.9746835 L72.0666667,13.9746835 L72.0666667,12.4219409 Z M32.2,4.97809283 C32.2,3.94551899 33.0295333,3.10548523 34.0492,3.10548523 L57.9508,3.10548523 C58.9704667,3.10548523 59.8,3.94551899 59.8,4.97809283 L59.8,13.9746835 L32.2,13.9746835 L32.2,4.97809283 Z M29.1333333,17.0801688 L62.8666667,17.0801688 L69,17.0801688 L76.6666667,17.0801688 L76.6666667,76.0843882 L15.3333333,76.0843882 L15.3333333,17.0801688 L23,17.0801688 L29.1333333,17.0801688 Z M10.7333333,12.4219409 L19.9333333,12.4219409 L19.9333333,13.9746835 L10.7333333,13.9746835 L10.7333333,12.4219409 Z M3.06666667,74.5161181 L3.06666667,18.6484388 C3.06666667,17.7835612 3.76126667,17.0801688 4.61533333,17.0801688 L7.66666667,17.0801688 L12.2666667,17.0801688 L12.2666667,76.0843882 L4.61533333,76.0843882 C3.76126667,76.0843882 3.06666667,75.3809958 3.06666667,74.5161181 Z M88.9333333,74.5161181 C88.9333333,75.3809958 88.2387333,76.0843882 87.3846667,76.0843882 L79.7333333,76.0843882 L79.7333333,17.0801688 L84.3333333,17.0801688 L87.3846667,17.0801688 C88.2387333,17.0801688 88.9333333,17.7835612 88.9333333,18.6484388 L88.9333333,74.5161181 Z" id="Shape"></path>
                        </g>
                    </g>
                </g>
            </g>
        </g>
    </g>
</svg>
