<?xml version="1.0" encoding="UTF-8"?>
<svg width="25px" height="23px" viewBox="0 0 25 23" version="1.1" xmlns="http://www.w3.org/2000/svg" xmlns:xlink="http://www.w3.org/1999/xlink">
    <!-- Generator: Sketch 52.2 (67145) - http://www.bohemiancoding.com/sketch -->
    <title>flaticon1539089532-svg</title>
    <desc>Created with Sketch.</desc>
    <g id="Pages" stroke="none" stroke-width="1" fill="none" fill-rule="evenodd">
        <g id="Homepage#notLogined" transform="translate(-87.000000, -2972.000000)" fill-rule="nonzero">
            <g id="Group" transform="translate(0.000000, 2948.000000)">
                <rect id="Rectangle-8" fill-opacity="0.8" fill="#EAEAEA" x="0" y="9" width="320" height="54"></rect>
                <g id="flaticon1539089532-svg" transform="translate(87.000000, 24.000000)" fill="#4A4A4A">
                    <path d="M22.9484954,18.4151786 L18.9087302,16.6654266 C18.8136574,16.6178902 18.7082507,16.5017361 18.6177249,16.3467262 L21.3148975,16.3446594 C21.3620205,16.3492063 22.4739583,16.4508929 23.3655754,16.0677083 C23.7032903,15.9222057 23.9546131,15.6349206 24.0554729,15.2794312 C24.1571594,14.9206349 24.0926753,14.5407573 23.8793816,14.2365245 C23.1084656,13.1394676 21.3091104,10.2728175 21.2528935,7.36524471 C21.2516534,7.31522817 21.0887897,2.37061839 16.2057705,2.33052249 C15.4869378,2.33630952 14.8222553,2.45825066 14.2175099,2.68311839 C14.0856481,2.34705688 13.891369,1.99652778 13.6024306,1.66666667 C12.7538029,0.697751323 11.3760747,0.206679894 9.50727513,0.206679894 C7.63847553,0.206679894 6.26074735,0.697751323 5.41170635,1.66583995 C4.43287037,2.78232474 4.52380952,4.13607804 4.54695767,4.36301257 L4.54695767,6.56167328 C4.28240741,6.86301257 4.13359788,7.24867725 4.13359788,7.64674272 L4.13359788,9.30018188 C4.13359788,9.80324074 4.36218585,10.2724041 4.75239749,10.5853175 C5.13103505,12.0845734 5.92344577,13.2142857 6.20039683,13.5768022 L6.20039683,14.9446098 C6.20039683,15.3447421 5.98214286,15.7118056 5.6312004,15.9036045 L1.94361772,17.9150132 C0.744460979,18.5697751 0,19.8239087 0,21.1896495 L0,22.9414683 L18.1878307,22.9414683 L19.0145503,22.9414683 L24.8015873,22.9414683 L24.8015873,21.4132771 C24.8015873,20.1351687 24.0914352,18.9868552 22.9484954,18.4151786 Z M18.1878307,22.1147487 L0.826719577,22.1147487 L0.826719577,21.1896495 C0.826719577,20.1269015 1.40625,19.1501323 2.33920304,18.6416997 L6.02678571,16.630291 C6.64393188,16.2934028 7.0271164,15.6473214 7.0271164,14.9450231 L7.0271164,13.2837302 L6.93080357,13.1688161 C6.92088294,13.1568287 5.9077381,11.9312169 5.52124669,10.2484292 L5.48363095,10.0847388 L5.34267526,9.9937996 C5.10333995,9.83920304 4.96031746,9.58002646 4.96031746,9.30059524 L4.96031746,7.64715608 C4.96031746,7.41526124 5.05869709,7.19907407 5.23726852,7.0374504 L5.37367725,6.91468254 L5.37367725,4.34027778 L5.36995701,4.28612765 C5.36871693,4.27496693 5.2281746,3.1291336 6.03339947,2.21064815 C6.71833664,1.42939815 7.88731812,1.03339947 9.50727513,1.03339947 C11.1214451,1.03339947 12.2879464,1.42650463 12.9737103,2.20238095 C13.3147321,2.58763228 13.4862765,3.01793981 13.5718419,3.38748347 C13.5784557,3.41641865 13.5846561,3.44494048 13.5904431,3.4734623 C13.5962302,3.50281085 13.6024306,3.53215939 13.6069775,3.56026786 C13.6123512,3.59250992 13.6168981,3.62309854 13.6214451,3.65368717 C13.624752,3.67559524 13.6280589,3.69791667 13.630539,3.71899802 C13.6367394,3.77025463 13.6416997,3.8198578 13.6450066,3.86574074 C13.64542,3.86946098 13.64542,3.87276786 13.64542,3.8764881 C13.6483135,3.92113095 13.6503803,3.96329365 13.6516204,4.00173611 C13.6516204,4.00917659 13.6516204,4.01537698 13.6520337,4.02281746 C13.6528604,4.05712632 13.6528604,4.08978175 13.6524471,4.11830357 C13.6524471,4.12243717 13.6524471,4.12657077 13.6524471,4.13070437 C13.6507937,4.22784392 13.6441799,4.28571429 13.6441799,4.28695437 L13.640873,6.91468254 L13.7772817,7.03786376 C13.9558532,7.19907407 14.0542328,7.41526124 14.0542328,7.64715608 L14.0542328,9.30059524 C14.0542328,9.66145833 13.817791,9.97726521 13.4664352,10.0855655 L13.260582,10.1488095 L13.1944444,10.3534226 C12.9179067,11.2136243 12.5239749,12.0081019 12.0229828,12.7149471 C11.9002149,12.8889716 11.780754,13.0431548 11.6770007,13.1609623 L11.5740741,13.2783565 L11.5740741,14.9834656 C11.5740741,15.0880456 11.5844081,15.1905589 11.6005291,15.2914187 C11.603836,15.3129134 11.609623,15.3335813 11.6137566,15.3550761 C11.6298776,15.4381614 11.6513724,15.5195933 11.6778274,15.5989583 C11.6840278,15.6175595 11.6906415,15.635334 11.6976687,15.6539352 C11.7299107,15.7403274 11.7675265,15.8238261 11.8113426,15.9040179 C11.8163029,15.9131118 11.8208499,15.922619 11.8258102,15.931713 C11.8857474,16.0375331 11.9547784,16.1379795 12.0341435,16.2305721 L12.1283896,16.3467262 L12.1445106,16.3467262 C12.286293,16.4864418 12.4491567,16.6079696 12.6343419,16.7005622 L16.583168,18.6747685 C17.5731647,19.1691468 18.1878307,20.1636905 18.1878307,21.2702546 L18.1878307,22.1147487 Z M23.9748677,22.1147487 L19.0145503,22.1147487 L19.0145503,21.2702546 C19.0145503,19.8487103 18.2246197,18.5710152 16.9535384,17.9352679 L14.1187169,16.5174438 C14.1885747,16.3578869 14.1976687,16.1751819 14.1364914,15.9990906 C14.0352183,15.707672 13.770668,15.5195933 13.4627149,15.5195933 L12.5462963,15.5195933 C12.5272817,15.4861111 12.514881,15.4493221 12.4995866,15.4137731 C12.4789187,15.3662368 12.4545304,15.3195271 12.4408896,15.2695106 C12.4156746,15.1777447 12.4007937,15.0818452 12.4007937,14.9834656 L12.4007937,13.5858962 C12.495453,13.4701554 12.5950728,13.3382937 12.6979993,13.192791 C13.2101521,12.4694114 13.6206184,11.6641865 13.9190642,10.7957176 C14.5023148,10.5282738 14.8809524,9.9516369 14.8809524,9.30059524 L14.8809524,7.64715608 C14.8809524,7.24909061 14.7321429,6.86342593 14.4675926,6.56208664 L14.4675926,4.36342593 C14.4783399,4.26008598 14.5014881,3.92154431 14.4328704,3.47924934 C14.9652778,3.27008929 15.561756,3.16220238 16.2061839,3.1568287 C20.2740575,3.19031085 20.4224537,7.21230159 20.4265873,7.3817791 C20.4873512,10.5162864 22.3883929,13.5520007 23.203125,14.7114749 C23.2729828,14.8106812 23.2940642,14.9355159 23.260582,15.0533234 C23.2415675,15.1211144 23.187004,15.2442956 23.0394345,15.3075397 C22.3449901,15.6063988 21.4029431,15.5216601 21.35458,15.5195933 L18.5094246,15.5195933 C18.2436343,15.5195933 18.0014054,15.6547619 17.8612765,15.8808697 C17.7215608,16.1061508 17.7083333,16.3814484 17.8257275,16.6178902 C17.9551091,16.8787202 18.1836971,17.2271825 18.5594411,17.4144345 L22.588459,19.1596396 C23.4437004,19.5916005 23.9748677,20.453869 23.9748677,21.4132771 L23.9748677,22.1147487 Z" id="Shape"></path>
                </g>
            </g>
        </g>
    </g>
</svg>