<?xml version="1.0" encoding="UTF-8"?>
<svg width="32px" height="28px" viewBox="0 0 32 28" version="1.1" xmlns="http://www.w3.org/2000/svg" xmlns:xlink="http://www.w3.org/1999/xlink">
    <!-- Generator: Sketch 52.2 (67145) - http://www.bohemiancoding.com/sketch -->
    <title>flaticon1538824508-svg</title>
    <desc>Created with Sketch.</desc>
    <g id="Pages" stroke="none" stroke-width="1" fill="none" fill-rule="evenodd">
        <g id="Homepage-#Search" transform="translate(-1242.000000, -27.000000)" fill="#9B9B9B" fill-rule="nonzero">
            <g id="Group-33">
                <g id="Group-6" transform="translate(1032.000000, 16.000000)">
                    <g id="Group-32" transform="translate(125.000000, 11.000000)">
                        <g id="Group-5" transform="translate(85.000000, 0.000000)">
                            <g id="flaticon1538824508-svg">
                                <path d="M31.6809776,11.3017989 L16.5321828,0.210164123 C16.2400628,-0.00368270961 15.843204,-0.00368270961 15.5512088,0.210164123 L0.402289211,11.3017989 C0.0322705232,11.5727589 -0.0481249002,12.0923331 0.222835141,12.4623518 C0.493795182,12.8323704 1.01343175,12.912641 1.38338802,12.6418058 L16.0416334,1.90926647 L30.6998788,12.6417434 C30.8476865,12.75004 31.0194631,12.8021597 31.1897416,12.8021597 C31.445409,12.8021597 31.6977058,12.6845003 31.8603693,12.4622893 C32.1313917,12.0923331 32.0509963,11.5727589 31.6809776,11.3017989 Z" id="Shape"></path>
                                <path d="M27.6668865,11.9363797 C27.208358,11.9363797 26.8365292,12.3081461 26.8365292,12.7667371 L26.8365292,25.983857 L20.1937949,25.983857 L20.1937949,18.7691168 C20.1937949,16.479595 18.3310928,14.6170178 16.0416958,14.6170178 C13.7522988,14.6170178 11.8895968,16.4797198 11.8895968,18.7691168 L11.8895968,25.9839195 L5.24680008,25.9839195 L5.24680008,12.7667995 C5.24680008,12.3082085 4.87497125,11.9364421 4.41644269,11.9364421 C3.95791414,11.9364421 3.5860853,12.3082085 3.5860853,12.7667995 L3.5860853,26.8143393 C3.5860853,27.2729302 3.95791414,27.6446967 4.41644269,27.6446967 L12.7199542,27.6446967 C13.1566361,27.6446967 13.5139838,27.307323 13.5470658,26.8790051 C13.5490632,26.8595929 13.5503116,26.8383705 13.5503116,26.8143393 L13.5503116,18.7691792 C13.5503116,17.3954037 14.6679203,16.277795 16.0416958,16.277795 C17.4154713,16.277795 18.5330801,17.3954661 18.5330801,18.7691792 L18.5330801,26.8143393 C18.5330801,26.8382457 18.5343285,26.8590935 18.5363259,26.8782561 C18.5690333,27.3068861 18.9265058,27.6446967 19.3634375,27.6446967 L27.666949,27.6446967 C28.1255399,27.6446967 28.4973063,27.2729302 28.4973063,26.8143393 L28.4973063,12.7667995 C28.4972439,12.3081461 28.1254775,11.9363797 27.6668865,11.9363797 Z" id="Shape"></path>
                            </g>
                        </g>
                    </g>
                </g>
            </g>
        </g>
    </g>
</svg>