<?xml version="1.0" encoding="UTF-8"?>
<svg width="13px" height="13px" viewBox="0 0 13 13" version="1.1" xmlns="http://www.w3.org/2000/svg" xmlns:xlink="http://www.w3.org/1999/xlink">
    <!-- Generator: Sketch 52.2 (67145) - http://www.bohemiancoding.com/sketch -->
    <title>flaticon1539336003-svg</title>
    <desc>Created with Sketch.</desc>
    <g id="Pages" stroke="8" stroke-width="1" fill="" fill-rule="evenodd">
        <g id="Single-Blog" transform="translate(-555.000000, -2448.000000)" fill="#4A4A4A" fill-rule="nonzero">
            <g id="Group-32" transform="translate(450.000000, 1868.000000)">
                <g id="Group-20-Copy-2" transform="translate(0.000000, 546.000000)">
                    <g id="Group-16" transform="translate(20.000000, 20.000000)">
                        <g id="Group-19" transform="translate(0.000000, 4.000000)">
                            <g id="Group-4-Copy-3">
                                <g id="flaticon1538823453-svg" transform="translate(85.000000, 10.000000)">
                                    <g id="Icons-/-Plus-/-White">
                                        <g id="flaticon1539336003-svg">
                                            <path d="M12.2556889,8.82317328 C12.5216597,8.48392484 12.6492171,8.12025052 12.6329332,7.74572025 C12.6166493,7.33319415 12.4320981,7.01022965 12.2801148,6.81210856 C12.456524,6.37244259 12.5243737,5.68037578 11.9354384,5.14300626 C11.5039144,4.74947808 10.7711378,4.57306889 9.75610647,4.62192067 C9.04232777,4.65448852 8.44525052,4.7874739 8.42082463,4.79290188 L8.41811065,4.79290188 C8.28241127,4.81732777 8.13856994,4.84718163 7.99201461,4.87974948 C7.98115866,4.70605428 8.01101253,4.27453027 8.33126305,3.30292276 C8.71122129,2.14676409 8.68950939,1.26200418 8.26069937,0.670354906 C7.81017745,0.0488517745 7.09097077,5.68434189e-14 6.87927975,5.68434189e-14 C6.67573069,5.68434189e-14 6.48846555,0.0841336117 6.35548017,0.238830898 C6.05422756,0.588935282 6.08950939,1.2348643 6.12750522,1.53340292 C5.76925887,2.49415449 4.76508351,4.84989562 3.91560543,5.5039666 C3.8993215,5.51482255 3.88575157,5.52839248 3.87218163,5.54196242 C3.62249478,5.80521921 3.45422756,6.09018789 3.34024008,6.33987474 C3.18011482,6.25302714 2.99827766,6.20417537 2.80287056,6.20417537 L1.1473382,6.20417537 C0.523121086,6.20417537 0.0183194154,6.71169102 0.0183194154,7.33319415 L0.0183194154,11.7434238 C0.0183194154,12.3676409 0.525835073,12.8724426 1.1473382,12.8724426 L2.80287056,12.8724426 C3.04441545,12.8724426 3.26967641,12.7964509 3.45422756,12.6661795 L4.09201461,12.7421712 C4.18971816,12.7557411 5.92667015,12.9755741 7.70975992,12.9402923 C8.03272443,12.9647182 8.33669102,12.9782881 8.61894572,12.9782881 C9.10474948,12.9782881 9.52813152,12.9402923 9.8809499,12.8643006 C10.7114301,12.6878914 11.2786534,12.3350731 11.5663361,11.8167015 C11.7861691,11.4204593 11.7861691,11.0269311 11.7508873,10.7772443 C12.2909708,10.2887265 12.3859603,9.74864301 12.3669624,9.36868476 C12.3561065,9.14885177 12.3072547,8.96158664 12.2556889,8.82317328 Z M1.1473382,12.139666 C0.927505219,12.139666 0.751096033,11.9605428 0.751096033,11.7434238 L0.751096033,7.33048017 C0.751096033,7.11064718 0.930219207,6.934238 1.1473382,6.934238 L2.80287056,6.934238 C3.02270355,6.934238 3.19911273,7.11336117 3.19911273,7.33048017 L3.19911273,11.7407098 C3.19911273,11.9605428 3.01998956,12.136952 2.80287056,12.136952 L1.1473382,12.136952 L1.1473382,12.139666 Z M11.5609081,8.50563674 C11.4469207,8.62505219 11.4252088,8.80688935 11.5120564,8.9480167 C11.5120564,8.95073069 11.6233299,9.14070981 11.6368998,9.40125261 C11.6558977,9.75678497 11.4849165,10.0716075 11.1266701,10.3402923 C10.9991127,10.4379958 10.947547,10.606263 11.0018267,10.7582463 C11.0018267,10.7609603 11.1185282,11.1192067 10.9285491,11.4584551 C10.7467119,11.7841336 10.3423278,12.0175365 9.7289666,12.1478079 C9.23773486,12.2536534 8.57009395,12.2726514 7.75046973,12.2075157 C7.73961378,12.2075157 7.72604384,12.2075157 7.7124739,12.2075157 C5.96737996,12.2455115 4.2032881,12.0175365 4.18429019,12.0148225 L4.1815762,12.0148225 L3.90746347,11.9822547 C3.92374739,11.906263 3.93188935,11.8248434 3.93188935,11.7434238 L3.93188935,7.33048017 C3.93188935,7.21377871 3.91289144,7.09979123 3.88032359,6.99394572 C3.92917537,6.81210856 4.06487474,6.40772443 4.38512526,6.06304802 C5.60370564,5.09686848 6.79514614,1.83736952 6.8467119,1.69624217 C6.8684238,1.63924843 6.87385177,1.57682672 6.86299582,1.51440501 C6.81685804,1.21043841 6.83314196,0.838622129 6.89827766,0.727348643 C7.042119,0.73006263 7.43021921,0.770772443 7.66362213,1.09373695 C7.94044885,1.47640919 7.9295929,2.16033403 7.63105428,3.06680585 C7.17510438,4.44822547 7.13710856,5.17557411 7.49806889,5.49582463 C7.67719207,5.6559499 7.91602296,5.66409186 8.08971816,5.60167015 C8.2552714,5.56367432 8.41268267,5.53110647 8.56195198,5.50668058 C8.57280793,5.5039666 8.58637787,5.50125261 8.59723382,5.49853862 C9.43042797,5.31670146 10.9231211,5.20542797 11.4414927,5.6776618 C11.8811587,6.07933194 11.5690501,6.61127349 11.5337683,6.66826722 C11.4333507,6.82025052 11.4632046,7.01837161 11.598904,7.14050104 C11.601618,7.14321503 11.8865866,7.41189979 11.9001566,7.77286013 C11.9110125,8.01440501 11.7970251,8.26137787 11.5609081,8.50563674 Z" id="Shape"></path>
                                        </g>
                                    </g>
                                </g>
                            </g>
                        </g>
                    </g>
                </g>
            </g>
        </g>
    </g>
</svg>
