<?xml version="1.0" encoding="UTF-8"?>
<svg width="21px" height="21px" viewBox="0 0 21 21" version="1.1" xmlns="http://www.w3.org/2000/svg" xmlns:xlink="http://www.w3.org/1999/xlink">
    <!-- Generator: Sketch 52.2 (67145) - http://www.bohemiancoding.com/sketch -->
    <title>flaticon1538822307-svg</title>
    <desc>Created with Sketch.</desc>
    <g id="Pages" stroke="none" stroke-width="1" fill="none" fill-rule="nonzero">
        <g id="Homepage" transform="translate(-392.000000, -267.000000)" fill="#4A4A4A" fill-rule="nonzero">
            <g id="Group-21-Copy" transform="translate(165.000000, 112.000000)">
                <g id="Group-20" transform="translate(0.000000, 48.000000)">
                    <g id="flaticon1538822307-svg" transform="translate(227.000000, 107.000000)">
                        <path d="M12.5479339,7.44206612 C12.5479339,8.35090909 11.886281,8.90363636 11.4031405,9.3092562 C11.2201653,9.46289256 10.8795868,9.74322314 10.8804959,9.84793388 C10.8838017,10.2586777 10.5535537,10.5866942 10.1427273,10.5866942 C10.1406612,10.5866942 10.138595,10.5866942 10.1365289,10.5866942 C9.72859504,10.5866942 9.39619835,10.2687603 9.39289256,9.86008264 C9.38636364,9.05454545 9.97421488,8.57214876 10.4466116,8.17553719 C10.8172727,7.86429752 11.0603306,7.64528926 11.0603306,7.44487603 C11.0603306,7.03917355 10.7302479,6.70909091 10.3245455,6.70909091 C9.91867769,6.70909091 9.5885124,7.03917355 9.5885124,7.44487603 C9.5885124,7.85570248 9.25553719,8.18867769 8.84471074,8.18867769 C8.4338843,8.18867769 8.10090909,7.85570248 8.10090909,7.44487603 C8.10090909,6.21892562 9.09834711,5.2214876 10.3243802,5.2214876 C11.5504959,5.22140496 12.5479339,6.21603306 12.5479339,7.44206612 Z M10.1571074,11.2733058 C9.74628099,11.2733058 9.42975207,11.606281 9.42975207,12.0171074 L9.42975207,12.0228099 C9.42975207,12.4336364 9.74636364,12.7638017 10.1571074,12.7638017 C10.5678512,12.7638017 10.9009091,12.4279339 10.9009091,12.0171074 C10.9009091,11.606281 10.5679339,11.2733058 10.1571074,11.2733058 Z M20.5950413,3.95651151 L20.5950413,13.2233163 C20.5950413,15.4174142 18.8346687,17.1978489 16.6392373,17.1978489 L5.95571982,17.1978489 C5.74684033,17.1978489 5.57484885,17.1966597 5.43095816,17.1936409 C5.28020246,17.1905307 5.11049932,17.1893415 5.04432059,17.1966597 C4.97539585,17.2423987 4.80642498,17.3970878 4.64358685,17.5470202 C4.57905572,17.6063893 4.50601197,17.6717046 4.42720162,17.7436062 L1.40458182,20.4969086 C1.16348253,20.7167301 0.806776419,20.7736293 0.508194086,20.6420841 C0.209611754,20.5104474 0,20.2149737 0,19.8888549 L0,11.1603062 L0,9.51370366 L0,3.95651151 C0,1.76232213 1.82014399,0 4.01566692,0 L16.6393289,0 C18.8346687,0 20.5950413,1.76232213 20.5950413,3.95651151 Z M19.107438,3.85656852 C19.107438,2.53741206 18.0673084,1.48760331 16.7565419,1.48760331 L3.89946968,1.48760331 C2.58860991,1.48760331 1.48760331,2.53741206 1.48760331,3.85656852 L1.48760331,10.4080694 L1.48760331,18.2824793 L3.17453933,16.748295 C3.25266326,16.6765253 3.34020307,16.6108536 3.40406332,16.5515614 C4.17439503,15.8372412 4.37147615,15.7230662 5.37627286,15.7438936 C5.51331602,15.7468019 5.67655586,15.7478339 5.87540828,15.7478339 L16.7565419,15.7478339 C18.0673084,15.7478339 19.107438,14.6794494 19.107438,13.3603867 L19.107438,3.85656852 Z" id="Shape"></path>
                    </g>
                </g>
            </g>
        </g>
    </g>
</svg>
