<?xml version="1.0" encoding="UTF-8"?>
<svg width="28px" height="28px" viewBox="0 0 28 28" version="1.1" xmlns="http://www.w3.org/2000/svg" xmlns:xlink="http://www.w3.org/1999/xlink">
    <!-- Generator: Sketch 52.2 (67145) - http://www.bohemiancoding.com/sketch -->
    <title>flaticon1538823967-svg</title>
    <desc>Created with Sketch.</desc>
    <g id="Pages" stroke="none" stroke-width="1" fill="none" fill-rule="evenodd">
        <g id="Homepage-#Search" transform="translate(-1092.000000, -27.000000)" fill="#9B9B9B" fill-rule="nonzero">
            <g id="Group-33">
                <g id="Group-6" transform="translate(1032.000000, 16.000000)">
                    <g id="flaticon1538823967-svg" transform="translate(60.000000, 11.000000)">
                        <path d="M27.5871094,20.0102109 C24.2938281,16.716 23.79825,15.0630703 23.79825,9.8 C23.79825,4.38757813 19.4116016,0 14.0001094,0 C8.58861719,0 4.20196875,4.38763281 4.20196875,9.8 C4.20196875,12.6377891 4.12639063,13.6971406 3.73575781,14.9977188 C3.24996875,16.618 2.2526875,18.1692109 0.412617187,20.0102109 C-0.468890625,20.8922109 0.15553125,22.4 1.40246094,22.4 L9.17103906,22.4 L9.10054688,23.1 C9.10054688,25.8062109 11.2938984,28 13.9996172,28 C16.7053359,28 18.8986875,25.8062109 18.8986875,23.1 L18.8281953,22.4 L26.5972656,22.4 C27.8446875,22.4 28.4691094,20.8922109 27.5871094,20.0102109 Z M14.0005469,26.6 C12.0680547,26.6 10.5010391,25.0324922 10.5010391,23.1 L10.5715313,22.4 L17.4287422,22.4 L17.5001641,23.1 C17.5001094,25.0324922 15.9330391,26.6 14.0005469,26.6 Z M1.40289844,21 C5.60196875,16.8 5.60196875,14 5.60196875,9.8 C5.60196875,5.16135156 9.36189844,1.4 14.0001094,1.4 C18.6383203,1.4 22.39825,5.16135156 22.3986875,9.8 C22.3986875,14 22.3986875,16.8 26.5977578,21 L1.40289844,21 Z" id="Shape"></path>
                    </g>
                </g>
            </g>
        </g>
    </g>
</svg>