<?xml version="1.0" encoding="UTF-8"?>
<svg width="17px" height="23px" viewBox="0 0 17 23" version="1.1" xmlns="http://www.w3.org/2000/svg" xmlns:xlink="http://www.w3.org/1999/xlink">
    <!-- Generator: Sketch 52.2 (67145) - http://www.bohemiancoding.com/sketch -->
    <title>flaticon1541670151-svg</title>
    <desc>Created with Sketch.</desc>
    <g id="Pages" stroke="none" stroke-width="1" fill="none" fill-rule="evenodd">
        <g id="Notifications" transform="translate(-393.000000, -217.000000)" fill="#4A4A4A" fill-rule="nonzero">
            <g id="Group-21-Copy" transform="translate(165.000000, 112.000000)">
                <g id="Group-20" transform="translate(0.000000, 48.000000)">
                    <g id="Group-17" transform="translate(131.000000, 56.000000)">
                        <g id="Icons-/-Plus-/-Gray" transform="translate(97.000000, 1.000000)">
                            <g id="flaticon1541670151-svg" transform="translate(0.066667, 0.000000)">
                                <path d="M15.0384667,15.7259667 L11.5357,13.9747667 C11.2053333,13.8094 11,13.4772 11,13.1076 L11,11.8679 C11.0839667,11.7652333 11.1723333,11.6482667 11.2636333,11.5192 C11.7179333,10.8775333 12.0820333,10.1632667 12.3467667,9.3929 C12.8641333,9.15566667 13.2,8.64416667 13.2,8.06666667 L13.2,6.6 C13.2,6.2469 13.068,5.9048 12.8333333,5.6375 L12.8333333,3.6872 C12.8538667,3.48553333 12.9345333,2.28506667 12.0662667,1.2947 C11.3131333,0.4356 10.0910333,0 8.43333333,0 C6.77563333,0 5.55353333,0.4356 4.8004,1.29433333 C3.93213333,2.2847 4.0128,3.48553333 4.03333333,3.6872 L4.03333333,5.6375 C3.79866667,5.9048 3.66666667,6.2469 3.66666667,6.6 L3.66666667,8.06666667 C3.66666667,8.5129 3.86943333,8.92906667 4.21556667,9.20663333 C4.55143333,10.5365333 5.25433333,11.5386333 5.5,11.8602 L5.5,13.0735 C5.5,13.4284333 5.3064,13.7540333 4.9951,13.9241667 L1.72406667,15.7083667 C0.660366667,16.2888 0,17.4012667 0,18.6127333 L0,19.8 C0,21.5402 5.5165,22 8.43333333,22 C11.3501667,22 16.8666667,21.5402 16.8666667,19.8 L16.8666667,18.6842333 C16.8666667,17.4236333 16.1659667,16.2899 15.0384667,15.7259667 Z M16.1333333,19.8 C16.1333333,20.2975667 13.4156,21.2666667 8.43333333,21.2666667 C3.45106667,21.2666667 0.733333333,20.2975667 0.733333333,19.8 L0.733333333,18.6127333 C0.733333333,17.6700333 1.2474,16.8036 2.07496667,16.3526 L5.346,14.5684 C5.89343333,14.2695667 6.23333333,13.6964667 6.23333333,13.0735 L6.23333333,11.5998667 L6.1479,11.4979333 C6.1391,11.4873 5.2404,10.4001333 4.89756667,8.90743333 L4.8642,8.76223333 L4.73916667,8.68156667 C4.52686667,8.54443333 4.4,8.31453333 4.4,8.06666667 L4.4,6.6 C4.4,6.3943 4.48726667,6.20253333 4.64566667,6.05916667 L4.76666667,5.95026667 L4.76666667,3.66666667 L4.76336667,3.61863333 C4.76226667,3.60873333 4.6376,2.59233333 5.35186667,1.7776 C5.95943333,1.0846 6.99636667,0.733333333 8.43333333,0.733333333 C9.86516667,0.733333333 10.8999,1.08203333 11.5082,1.77026667 C12.2221,2.5773 12.1040333,3.60983333 12.1033,3.61863333 L12.1,5.95026667 L12.221,6.05953333 C12.3794,6.20253333 12.4666667,6.3943 12.4666667,6.6 L12.4666667,8.06666667 C12.4666667,8.38676667 12.2569333,8.6669 11.9452667,8.76296667 L11.7626667,8.81906667 L11.704,9.00056667 C11.4587,9.7636 11.1092667,10.4683333 10.6648667,11.0953333 C10.5559667,11.2497 10.45,11.3864667 10.3579667,11.4909667 L10.2666667,11.5951 L10.2666667,13.1076 C10.2666667,13.7566 10.6271,14.3399667 11.2075333,14.6303667 L14.7103,16.3815667 C15.5881,16.8204667 16.1333333,17.7026667 16.1333333,18.6842333 L16.1333333,19.8 Z" id="Shape"></path>
                            </g>
                        </g>
                    </g>
                </g>
            </g>
        </g>
    </g>
</svg>