<svg xmlns="http://www.w3.org/2000/svg" xmlns:xlink="http://www.w3.org/1999/xlink" viewBox="0 0 99.1 108.6"><defs><linearGradient id="linear-gradient" x1="-258.18" y1="477.57" x2="-257.18" y2="477.57" gradientTransform="matrix(99.11, 0, 0, -108.59, 25587.93, 51912.39)" gradientUnits="userSpaceOnUse"><stop offset="0" stop-color="#92278f"/><stop offset="1" stop-color="#ef4136"/></linearGradient></defs><title>Asset 2</title><g id="Layer_2" data-name="Layer 2"><g id="Layer_1-2" data-name="Layer 1"><g id="Xperta_1" data-name="Xperta 1"><g id="Group_1" data-name="Group 1"><path id="Path_1" data-name="Path 1" d="M59.8,90.6V86.8h8.3a4.9,4.9,0,0,0,4.8-5,5.1,5.1,0,0,0-.3-1.7L54,37.5a4.7,4.7,0,0,0-6.4-2.4,4.3,4.3,0,0,0-2.4,2.4L26.7,80.1A4.7,4.7,0,0,0,29,86.4a5.4,5.4,0,0,0,2.2.4h8.1v3.8a18.1,18.1,0,0,1-18,18H18A18.2,18.2,0,0,1,0,90.4a16.9,16.9,0,0,1,1.5-7L33,10.8A18.2,18.2,0,0,1,49.5,0h0A18.2,18.2,0,0,1,66.1,10.8L97.6,83.4a18,18,0,0,1-9.4,23.7,17.5,17.5,0,0,1-7.2,1.5H77.8A18.1,18.1,0,0,1,59.8,90.6Z" fill="url(#linear-gradient)"/></g></g></g></g></svg>