<?xml version="1.0" encoding="UTF-8"?>
<svg width="21px" height="21px" viewBox="0 0 21 21" version="1.1" xmlns="http://www.w3.org/2000/svg" xmlns:xlink="http://www.w3.org/1999/xlink">
    <!-- Generator: Sketch 52.2 (67145) - http://www.bohemiancoding.com/sketch -->
    <title>flaticon1539089839-svg</title>
    <desc>Created with Sketch.</desc>
    <g id="Pages" stroke="none" stroke-width="1" fill="none" fill-rule="evenodd">
        <g id="Homepage" transform="translate(-392.000000, -169.000000)" fill="#4A4A4A" fill-rule="nonzero">
            <g id="Group-21-Copy" transform="translate(165.000000, 112.000000)">
                <g id="Group-20" transform="translate(0.000000, 48.000000)">
                    <g id="flaticon1539089839-svg" transform="translate(227.000000, 9.000000)">
                        <path d="M7.25123438,0 L2.42845312,0 C1.08941602,0 0,1.08941602 0,2.42845312 L0,7.25123438 C0,8.59027148 1.08941602,9.6796875 2.42845312,9.6796875 L7.25123438,9.6796875 C8.59027148,9.6796875 9.6796875,8.59027148 9.6796875,7.25123438 L9.6796875,2.42845312 C9.6796875,1.08941602 8.59027148,0 7.25123438,0 Z M8.37506292,7.50449259 C8.37506292,7.98451187 7.98451187,8.37506292 7.50449259,8.37506292 L2.17519533,8.37506292 C1.69517605,8.37506292 1.304625,7.98451187 1.304625,7.50449259 L1.304625,2.17519533 C1.304625,1.69517605 1.69517605,1.304625 2.17519533,1.304625 L7.50449259,1.304625 C7.98451187,1.304625 8.37506292,1.69517605 8.37506292,2.17519533 L8.37506292,7.50449259 Z" id="Shape"></path>
                        <path d="M18.5390625,0 L13.78125,0 C12.4242891,0 11.3203125,1.10397656 11.3203125,2.4609375 L11.3203125,7.21875 C11.3203125,8.57571094 12.4242891,9.6796875 13.78125,9.6796875 L18.5390625,9.6796875 C19.8960234,9.6796875 21,8.57571094 21,7.21875 L21,2.4609375 C21,1.10397656 19.8960234,0 18.5390625,0 Z M19.6953758,7.46859652 C19.6953758,7.96842209 19.288735,8.37506292 18.7889094,8.37506292 L13.5314043,8.37506292 C13.0315787,8.37506292 12.6249379,7.96842209 12.6249379,7.46859652 L12.6249379,2.2110914 C12.6249379,1.71126583 13.0315787,1.304625 13.5314043,1.304625 L18.7889094,1.304625 C19.288735,1.304625 19.6953758,1.71126583 19.6953758,2.2110914 L19.6953758,7.46859652 Z" id="Shape"></path>
                        <path d="M7.25123438,11.3203125 L2.42845312,11.3203125 C1.08941602,11.3203125 0,12.4097285 0,13.7487656 L0,18.5715469 C0,19.910584 1.08941602,21 2.42845312,21 L7.25123438,21 C8.59027148,21 9.6796875,19.910584 9.6796875,18.5715469 L9.6796875,13.7487656 C9.6796875,12.4097285 8.59027148,11.3203125 7.25123438,11.3203125 Z M8.29106292,18.8248055 C8.29106292,19.3048248 7.90515179,19.6953758 7.43083536,19.6953758 L2.16485256,19.6953758 C1.69053613,19.6953758 1.304625,19.3048248 1.304625,18.8248055 L1.304625,13.4955083 C1.304625,13.015489 1.69053613,12.6249379 2.16485256,12.6249379 L7.43083536,12.6249379 C7.90515179,12.6249379 8.29106292,13.015489 8.29106292,13.4955083 L8.29106292,18.8248055 Z" id="Shape"></path>
                        <path d="M18.5390625,11.3203125 L13.78125,11.3203125 C12.4242891,11.3203125 11.3203125,12.4242891 11.3203125,13.78125 L11.3203125,18.5390625 C11.3203125,19.8960234 12.4242891,21 13.78125,21 L18.5390625,21 C19.8960234,21 21,19.8960234 21,18.5390625 L21,13.78125 C21,12.4242891 19.8960234,11.3203125 18.5390625,11.3203125 Z M19.6953758,18.9569094 C19.6953758,19.456735 19.288735,19.8633758 18.7889094,19.8633758 L13.5314043,19.8633758 C13.0315787,19.8633758 12.6249379,19.456735 12.6249379,18.9569094 L12.6249379,13.6994043 C12.6249379,13.1995787 13.0315787,12.7929379 13.5314043,12.7929379 L18.7889094,12.7929379 C19.288735,12.7929379 19.6953758,13.1995787 19.6953758,13.6994043 L19.6953758,18.9569094 Z" id="Shape"></path>
                    </g>
                </g>
            </g>
        </g>
    </g>
</svg>