<?xml version="1.0" encoding="UTF-8"?>
<svg width="92px" height="88px" viewBox="0 0 92 88" version="1.1" xmlns="http://www.w3.org/2000/svg" xmlns:xlink="http://www.w3.org/1999/xlink">
    <!-- Generator: Sketch 52.2 (67145) - http://www.bohemiancoding.com/sketch -->
    <title>flaticon1540815534-svg</title>
    <desc>Created with Sketch.</desc>
    <g id="Pages" stroke="none" stroke-width="1" fill="none" fill-rule="evenodd">
        <g id="Category" transform="translate(-314.000000, -244.000000)" fill="#979797">
            <g id="Group-10" transform="translate(165.000000, 160.000000)">
                <g id="Group-11-Copy-5" transform="translate(20.000000, 20.000000)">
                    <g id="Icons-/-Marketing-/-White" transform="translate(129.000000, 64.000000)">
                        <g id="flaticon1540815534-svg">
                            <path d="M24.6108704,55.9986714 C25.4700013,55.497644 25.764099,54.3855907 25.2685547,53.5169541 C24.7723083,52.6490272 23.6731263,52.3509656 22.8139954,52.8519928 C21.9548645,53.3537298 21.6600647,54.4657834 22.1563111,55.3337103 C22.6518555,56.2023469 23.7517395,56.5004084 24.6108704,55.9986714 Z" id="Path"></path>
                            <path d="M17.2471924,68.5378375 L26.2961426,84.3854871 C28.2488404,87.8089371 32.6413574,89.0764085 36.1150817,87.0460414 C39.5523072,85.0376743 40.733612,80.5972665 38.7451172,77.1191719 L33.3544922,67.677717 L38.0228577,64.9525827 C38.8819886,64.4501361 39.1767884,63.339502 38.680542,62.4708654 L36.3439026,58.378906 C36.6225586,58.3242612 38.4545287,57.96091 70.7610778,51.5532961 C74.7549134,51.334008 77.1477051,46.9177291 75.1304322,43.3871188 L69.1586303,32.9294159 L72.9748841,27.0852803 C73.3497009,26.5104472 73.3721618,25.7716804 73.0317383,25.1755573 L69.4379883,18.8822002 C69.0975647,18.2860771 68.4511107,17.9369192 67.7737731,17.9773704 L60.8607178,18.3967857 L54.2312317,6.78657802 C53.2710267,5.10465909 51.5506592,4.08628222 49.630249,4.06215333 C49.6070862,4.06144371 49.5846253,4.06144371 49.5614623,4.06144371 C47.7056275,4.06144371 46.0210572,4.99536995 45.0229492,6.57438653 L21.5498658,36.8077645 L6.28976436,45.7155473 C0.287780672,49.2177708 -1.79125977,57.0028551 1.68597403,63.0875689 C4.86279297,68.6513848 11.5603639,70.8400083 17.2471924,68.5378375 Z M35.6335755,78.936638 C36.6260681,80.6724917 36.0385742,82.8937601 34.316803,83.899363 C32.5894166,84.909224 30.3896484,84.288972 29.4083861,82.5694406 L20.4240111,66.833919 L26.6484986,63.2004066 C37.0465088,81.4119683 35.4665222,78.6449634 35.6335755,78.936638 Z M31.5576172,64.5303288 L29.7607422,61.3836504 L32.8729858,59.5668941 L34.6698608,62.7135726 L31.5576172,64.5303288 Z M66.8809509,21.6712048 L69.3642884,26.0200649 L67.1497803,29.4108702 L62.8695678,21.9146218 L66.8809509,21.6712048 Z M48.0285033,8.56643137 C48.5107116,7.76876184 49.2757874,7.68644008 49.586029,7.69495612 C49.8927611,7.69850443 50.6571351,7.7950196 51.1182861,8.60262442 L72.0181885,45.203875 C72.6990357,46.3954116 71.8714905,47.8935259 70.5062865,47.9275901 C70.261322,47.9332674 70.1483154,47.9779767 69.5208131,48.0964915 L47.4129333,9.38042317 C47.876892,8.77720343 47.936554,8.71901055 48.0285033,8.56643137 Z M45.0215455,12.4603929 L65.7929993,48.8359682 L34.4445495,55.0526808 L24.9126892,38.3605235 L45.0215455,12.4603929 Z M4.79821777,61.2708127 C4.00927734,59.8905038 3.59234628,58.3235516 3.59234628,56.7381481 C3.59234628,53.4977929 5.31481934,50.4802744 8.08663936,48.8622259 L22.0917357,40.686823 L31.0761107,56.4202157 L17.0710144,64.5963283 C12.7802734,67.1000454 7.27523799,65.6083182 4.79821777,61.2708127 Z" id="Shape" fill-rule="nonzero"></path>
                            <path d="M19.0440674,57.1504665 C18.547821,56.2818299 17.448639,55.9837684 16.5895081,56.4855052 L13.4772644,58.3022614 C12.6195374,58.8032888 11.5182494,58.5045176 11.0227051,57.6373003 C10.5264587,56.7686637 9.42727666,56.4706022 8.5681458,56.9723392 C7.70901494,57.4740762 7.41421513,58.5854199 7.91046152,59.4540565 C9.38937373,62.0443535 12.6883239,62.9576992 15.2741394,61.44894 L18.3863831,59.6321838 C19.245514,59.1304468 19.5403138,58.0198127 19.0440674,57.1504665 Z" id="Path"></path>
                            <path d="M89.3292542,7.94759878 L79.3165893,13.5809623 C78.4497376,14.0692155 78.13739,15.1755917 78.6203002,16.0520347 C79.1018066,16.9277679 80.1953736,17.2449906 81.0643311,16.7560277 L91.0762939,11.122664 C91.9438477,10.6344108 92.2554932,9.52803461 91.772583,8.65159181 C91.2903747,7.77443921 90.196106,7.45934555 89.3292542,7.94759878 Z" id="Path"></path>
                            <path d="M88.2792054,26.7637995 L81.3366699,24.8831731 C80.3778686,24.6234336 79.3923951,25.1982667 79.135498,26.1676764 C78.878601,27.1370862 79.4478454,28.1327536 80.4066468,28.3924931 L87.3498841,30.2731196 C88.3143005,30.5349881 89.2948608,29.9509293 89.5503541,28.9886162 C89.807251,28.0192064 89.2380065,27.0228293 88.2792054,26.7637995 Z" id="Path"></path>
                            <path d="M70.8326722,1.34695432 L68.9705201,8.36701403 C68.713623,9.3364237 69.2821654,10.3320913 70.2409668,10.5925404 C71.1990661,10.85157 72.1845398,10.2781564 72.4421387,9.30803688 L74.3035889,2.28797735 C74.5604858,1.3185675 73.9919434,0.322190449 73.033142,0.0624509946 C72.0750427,-0.19728846 71.089569,0.377544649 70.8326722,1.34695432 Z" id="Path"></path>
                        </g>
                    </g>
                </g>
            </g>
        </g>
    </g>
</svg>
