<?xml version="1.0" encoding="UTF-8"?>
<svg width="15px" height="15px" viewBox="0 0 15 15" version="1.1" xmlns="http://www.w3.org/2000/svg" xmlns:xlink="http://www.w3.org/1999/xlink">
    <!-- Generator: Sketch 52.2 (67145) - http://www.bohemiancoding.com/sketch -->
    <title>flaticon1540815433-svg</title>
    <desc>Created with Sketch.</desc>
    <g id="Pages" stroke="none" stroke-width="1" fill="none" fill-rule="evenodd">
        <g id="Homepage-#PostWithLink" transform="translate(-568.000000, -395.000000)" fill="#4A4A4A">
            <g id="Group-26-Copy" transform="translate(450.000000, 112.000000)">
                <g id="Group-37" transform="translate(0.000000, 177.000000)">
                    <g id="Icons-/-Businnes-/-Gray-Copy-2" transform="translate(118.000000, 106.000000)">
                        <g id="flaticon1540815433-svg">
                            <path d="M12.5418557,10.6816528 L11.7030928,9.82094595 C11.6173608,9.73281705 11.4806289,9.72115385 11.3814433,9.79350312 L7.72701031,12.5078482 L6.43298969,11.8941268 L7.56865979,11.7668919 C7.69360825,11.7516736 7.78728866,11.6443035 7.78639175,11.5174116 L7.78639175,10.439657 C7.78639175,10.3018815 7.67560825,10.1901767 7.53896907,10.1901767 L6.30185567,10.1901767 L4.2185567,9.9756237 C4.17630928,9.97147609 4.13369072,9.9783368 4.09484536,9.99558212 L2.67463918,10.6093035 L0,10.6093035 L0,11.108264 L2.72659794,11.108264 C2.76058763,11.1085447 2.79429897,11.1017464 2.82556701,11.0883056 L4.23340206,10.4670998 L6.26474227,10.6766632 L7.3014433,10.6766632 L7.3014433,11.2953742 L6.38597938,11.4101351 L5.05731959,11.2679314 C4.93762887,11.2562994 4.82696907,11.3331393 4.79505155,11.450052 C4.76282474,11.5665281 4.81809278,11.689553 4.92618557,11.7419439 L7.67010309,13.0142931 C7.75104124,13.0514033 7.84549485,13.0418919 7.91752577,12.9893451 L11.5150515,10.324896 L12.0098969,10.843815 L7.87546392,14.4862266 L6.75463918,14.4862266 L2.80824742,13.0068087 C2.78065979,12.9958004 2.75130928,12.9898753 2.72164948,12.9893451 L0,12.9893451 L0,13.4883056 L2.67958763,13.4883056 L6.62350515,14.9702183 C6.65124742,14.9803846 6.68056701,14.9854366 6.71010309,14.9851871 L7.96701031,14.9851871 C8.02716495,14.9850936 8.08521649,14.962921 8.13030928,14.922817 L12.5294845,11.045894 C12.5336598,11.0422141 12.5377113,11.0384096 12.5416082,11.0344802 C12.6383196,10.9371206 12.6384124,10.7791372 12.5418557,10.6816528 Z" id="Path"></path>
                            <path d="M13.2,6.25337838 L11.8936082,4.88373181 C11.8520103,4.83926195 11.7956598,4.81172557 11.7352577,4.80639293 L9.06309278,4.55691268 L8.04371134,4.55691268 L8.09319588,3.80847193 L9.06061856,3.61138254 L10.4115464,3.91574844 C10.4393814,3.92058212 10.4678351,3.92058212 10.4956701,3.91574844 L11.8094845,3.75857588 L11.7501031,3.25961538 L10.4783505,3.39682952 L9.11752577,3.09246362 C9.08424742,3.08379418 9.04936082,3.08379418 9.01608247,3.09246362 L7.81113402,3.34194387 C7.70019588,3.36336798 7.61774227,3.45779626 7.61072165,3.5714657 L7.53154639,4.78643451 C7.53123711,4.79158004 7.53108247,4.79669439 7.5311134,4.80183992 C7.53136082,4.93961538 7.6423299,5.05113306 7.77896907,5.05088358 L9.04082474,5.05088358 L11.5991753,5.28539501 L12.9154639,6.675 C12.9619485,6.72414761 13.0262784,6.7520894 13.0936082,6.75233888 L14.8453608,6.75233888 L14.8453608,6.25337838 L13.2,6.25337838 Z" id="Path"></path>
                            <path d="M12.7694845,1.05919958 C12.7421443,1.0368711 12.7099175,1.0214657 12.6754639,1.01429314 L8.46927835,0.0163721414 C8.39802062,0.00130977131 8.32382474,0.0186486486 8.26639175,0.0637733888 L5.54474227,2.05961538 L5.83670103,2.46377339 L8.46680412,0.53529106 L12.5096907,1.49329522 L14.694433,3.20722453 L14.9962887,2.80556133 L12.7694845,1.05919958 Z" id="Path"></path>
                            <path d="M8.75134021,1.54069647 C8.68682474,1.51144491 8.61296907,1.51144491 8.54845361,1.54069647 L7.06391753,2.28913721 L7.28659794,2.73321206 L8.67216495,2.03716216 L9.80536082,2.50369023 L9.98845361,2.03965696 L8.75134021,1.54069647 Z" id="Path"></path>
                            <path d="M6.19298969,4.30493763 L5.75752577,4.24007277 C5.55958763,4.21013514 5.44329897,4.13279626 5.44329897,4.00805613 C5.44329897,3.88331601 5.61649485,3.75857588 5.84907216,3.7710499 L6.02721649,3.7710499 C6.25979381,3.7710499 6.43298969,3.89579002 6.43298969,4.00805613 L6.43298969,4.0754158 L6.92783505,4.0754158 L6.92783505,4.00805613 C6.92783505,3.58393971 6.53195876,3.25961538 6.02721649,3.25961538 L5.84907216,3.25961538 C5.3443299,3.25961538 4.94845361,3.58393971 4.94845361,4.00805613 C4.98906186,4.39715177 5.30331959,4.69927235 5.69072165,4.72156965 L6.11876289,4.78643451 C6.31670103,4.81637214 6.43298969,4.90618503 6.43298969,5.01845114 C6.43298969,5.13071726 6.25979381,5.25545738 6.02721649,5.25545738 L5.84907216,5.25545738 C5.61649485,5.25545738 5.44329897,5.13071726 5.44329897,5.01845114 L5.44329897,4.95109148 L4.94845361,4.95109148 L4.94845361,5.01845114 C4.94845361,5.43009356 5.3542268,5.75441788 5.84907216,5.75441788 L6.02721649,5.75441788 C6.53195876,5.75441788 6.92783505,5.43009356 6.93525773,5.03092516 C6.90037113,4.63693347 6.58462887,4.32810811 6.19298969,4.30493763 Z" id="Path"></path>
                            <path d="M7.90020619,4.76897089 C7.81023711,5.44755717 7.38160825,6.03227651 6.76465979,6.31808732 C5.77131959,6.77828482 4.59606186,6.33935551 4.13965979,5.33775468 C3.68325773,4.33615385 4.11856701,3.15112266 5.11190722,2.69092516 C6.10524742,2.23072765 7.28050515,2.66965696 7.73690722,3.6712578 L8.18474227,3.46169439 C7.78036082,2.57809771 6.90334021,2.01221414 5.93820619,2.01221414 C4.57172165,2.01218295 3.46394845,3.12913721 3.46394845,4.50698545 C3.46391753,5.88483368 4.57165979,7.00178794 5.93814433,7.00181913 C7.18002062,7.00400208 8.23113402,6.07758836 8.39505155,4.83633056 L7.90020619,4.76897089 Z" id="Path"></path>
                            <rect id="Rectangle" x="5.69072165" y="3.01029106" width="1" height="1"></rect>
                        </g>
                    </g>
                </g>
            </g>
        </g>
    </g>
</svg>