<?xml version="1.0" encoding="UTF-8"?>
<svg width="92px" height="68px" viewBox="0 0 92 68" version="1.1" xmlns="http://www.w3.org/2000/svg" xmlns:xlink="http://www.w3.org/1999/xlink">
    <!-- Generator: Sketch 52.2 (67145) - http://www.bohemiancoding.com/sketch -->
    <title>flaticon1540815312-svg</title>
    <desc>Created with Sketch.</desc>
    <g id="Pages" stroke="none" stroke-width="1" fill="none" fill-rule="evenodd">
        <g id="Category" transform="translate(-1034.000000, -254.000000)" fill="#979797">
            <g id="Group-10" transform="translate(165.000000, 160.000000)">
                <g id="Group-11-Copy-7" transform="translate(740.000000, 20.000000)">
                    <g id="Icons-/-Team" transform="translate(129.000000, 74.000000)">
                        <g id="flaticon1540815312-svg">
                            <path d="M81.1684375,30.6108511 C78.0379219,29.0356383 72.1684297,29.0173723 71.9201016,29.0173723 C71.1758359,29.0173723 70.5724453,29.6246702 70.5724453,30.3737553 C70.5724453,31.1228404 71.1758359,31.7301383 71.9201016,31.7301383 C73.4346875,31.7303191 77.8321797,31.9650638 79.9630938,33.0373298 C80.1566172,33.1348085 80.3621797,33.1807447 80.5646875,33.1807447 C81.0590078,33.1807447 81.535,32.9058511 81.7711094,32.4307553 C82.1040703,31.7607021 81.8341797,30.9459681 81.1684375,30.6108511 Z" id="Path"></path>
                            <path d="M87.8873125,49.9223085 L82.3214922,48.3217766 C82.08125,48.2526915 81.9134219,48.0287979 81.9134219,47.777234 L81.9134219,45.9074149 C82.3662344,45.5916489 82.7982031,45.238266 83.2019609,44.8438298 C85.1587578,42.9325957 86.2363438,40.3690319 86.2363438,37.6251596 L86.2363438,35.0449574 L86.7745078,33.9618404 C87.3651406,32.7727447 87.6772578,31.4415 87.6772578,30.1122447 L87.6772578,23.1223511 C87.6772578,22.373266 87.0738672,21.7659681 86.3296016,21.7659681 L73.3610156,21.7659681 C68.6452969,21.7659681 64.8086094,25.6275 64.8086094,30.3737553 L64.8086094,30.4545957 C64.8086094,31.5599574 65.0682578,32.6669468 65.5593437,33.6554787 L66.2495234,35.0447766 L66.2495234,37.2602021 C66.2495234,40.7712447 67.9685937,43.9214894 70.5724453,45.8171702 L70.5728047,47.7768723 C70.5728047,48.0790745 70.5728047,48.2042234 69.46,48.5243298 L66.7442031,49.3052447 L58.8880859,46.4300745 C58.9162969,46.0569787 58.7912344,45.6775532 58.5208047,45.3916277 L56.0103906,42.7370957 L56.0103906,38.2809255 C56.2757891,38.0608298 56.5374141,37.834766 56.7909531,37.5956809 C59.9579453,34.6080213 61.7742266,30.3898511 61.7742266,26.0228404 L61.7742266,22.4640532 C62.7305234,20.369617 63.2151406,18.1532872 63.2151406,15.870766 L63.2151406,1.36831915 C63.2151406,0.619234043 62.61175,0.0119361702 61.8674844,0.0119361702 L41.6941484,0.0119361702 C34.5946953,0.0119361702 28.819,5.82521277 28.819,12.9704574 L28.819,15.8711277 C28.819,18.1536489 29.3036172,20.3699787 30.2599141,22.4644149 L30.2599141,25.5264043 C30.2599141,30.5967447 32.4998984,35.1646809 36.02375,38.1762128 L36.02375,42.7372766 L33.5133359,45.3918085 C33.2429063,45.677734 33.1178438,46.0571596 33.1460547,46.4302553 L24.854375,49.4647553 C24.2535,49.6846702 23.6952109,49.9825319 23.1883125,50.3433298 L21.8862969,49.6881064 C25.7621563,47.9900957 26.9899609,45.6019574 27.0488984,45.4833191 C27.2386484,45.1015426 27.2386484,44.6519468 27.0488984,44.2701702 C26.0773281,42.3144468 25.9596328,38.7297979 25.8651172,35.8495638 C25.8336719,34.8906915 25.8038438,33.9848085 25.7468828,33.1782128 C25.2874219,26.6722766 20.3733281,21.7659681 14.3160625,21.7659681 C8.25879688,21.7659681 3.34452344,26.6720957 2.88524219,33.1782128 C2.82828125,33.9849894 2.79845313,34.8908723 2.76700781,35.8499255 C2.67249219,38.7299787 2.55461719,42.314266 1.58322656,44.2699894 C1.39347656,44.651766 1.39347656,45.1013617 1.58322656,45.4831383 C1.64216406,45.6017766 2.86745313,47.9850319 6.75103906,49.6850319 L3.13446875,51.5049362 C1.20103125,52.4786383 0,54.4345426 0,56.61 L0,66.6307766 C0,67.3798617 0.603390625,67.9871596 1.34765625,67.9871596 C2.09192187,67.9871596 2.6953125,67.3798617 2.6953125,66.6307766 L2.6953125,56.61 C2.6953125,55.4684681 3.32547656,54.4421383 4.3398125,53.9315957 L8.84332031,51.6653511 L10.4098359,53.1637021 C11.5052109,54.2113723 12.9103672,54.7349362 14.3160625,54.7349362 C15.7213984,54.7349362 17.1272734,54.2110106 18.2222891,53.1637021 L19.788625,51.6655319 L21.2570313,52.4044894 C20.5655938,53.5179894 20.1731563,54.823734 20.1731563,56.1915106 L20.1731563,66.6311383 C20.1731563,67.3802234 20.7765469,67.9875213 21.5208125,67.9875213 C22.2650781,67.9875213 22.8684688,67.3802234 22.8684688,66.6311383 L22.8684688,56.1915106 C22.8684688,54.3294681 24.0366172,52.6508085 25.7754531,52.0143936 L34.5176094,48.8149574 L38.1568203,54.3093936 C38.6220312,55.0118191 39.3675547,55.4623191 40.2022031,55.5455106 C40.2952813,55.554734 40.3878203,55.5592553 40.4801797,55.5592553 C41.2165391,55.5592553 41.9218125,55.2675426 42.4490156,54.7371064 L44.6692344,52.5025106 L44.6692344,66.6313191 C44.6692344,67.3804043 45.272625,67.9877021 46.0168906,67.9877021 C46.7611562,67.9877021 47.3645469,67.3804043 47.3645469,66.6313191 L47.3645469,52.5025106 L49.5847656,54.7371064 C50.1117891,55.2677234 50.8170625,55.5594362 51.5536016,55.5594362 C51.6457812,55.5594362 51.7385,55.5549149 51.8313984,55.5456915 C52.6662266,55.4625 53.41175,55.012 53.8769609,54.3095745 L57.5163516,48.8153191 L66.2583281,52.0147553 C67.9969844,52.6511702 69.1653125,54.3298298 69.1653125,56.1918723 L69.1653125,66.6315 C69.1653125,67.3805851 69.7687031,67.987883 70.5129687,67.987883 C71.2572344,67.987883 71.860625,67.3805851 71.860625,66.6315 L71.860625,56.1918723 C71.860625,54.3059574 71.1161797,52.537234 69.8673516,51.2291383 L70.2003125,51.1334681 C70.5361484,51.0368936 70.9943516,50.9046915 71.4543516,50.6777234 L74.8951875,54.1408404 L74.8951875,66.6315 C74.8951875,67.3805851 75.4985781,67.987883 76.2428437,67.987883 C76.9871094,67.987883 77.5905,67.3805851 77.5905,66.6315 L77.5905,54.1408404 L81.0074375,50.7017766 C81.1891016,50.794734 81.3799297,50.8732234 81.5808203,50.9309149 L87.1468203,52.5314468 C88.4172109,52.896766 89.3046875,54.0807979 89.3046875,55.4107766 L89.3046875,66.6315 C89.3046875,67.3805851 89.9080781,67.987883 90.6523438,67.987883 C91.3966094,67.987883 92,67.3805851 92,66.6315 L92,55.4107766 C92,52.8756064 90.3087813,50.618766 87.8873125,49.9223085 Z M8.64566406,47.5265745 C6.12482813,46.6136383 4.86036719,45.3965106 4.32058594,44.731883 C4.68858594,43.7636064 4.92721094,42.6546277 5.08875,41.4839787 C5.8319375,43.2774787 7.07663281,44.8085638 8.64566406,45.9009043 L8.64566406,47.5265745 Z M16.3659375,51.1974894 C15.2164766,52.2967021 13.4158281,52.2965213 12.2667266,51.1973085 L11.0134063,49.9986277 C11.2248984,49.5998511 11.3411563,49.1477234 11.3411563,48.6740745 L11.3411563,47.2283511 C12.2812813,47.5240426 13.2807031,47.6835532 14.3164219,47.6835532 C15.3508828,47.6835532 16.3497656,47.5233191 17.2915078,47.2292553 L17.2913281,48.6738936 C17.2913281,49.1477234 17.4074062,49.6000319 17.6190781,49.9989894 L16.3659375,51.1974894 Z M14.3167812,44.9707872 C10.2925,44.9707872 7.01877344,41.6756809 7.01877344,37.6255213 C7.01877344,36.8764362 6.41538281,36.2691383 5.67111719,36.2691383 C5.59564844,36.2691383 5.52197656,36.2769149 5.44992188,36.2890319 C5.453875,36.172383 5.45764844,36.0555532 5.46160156,35.9399894 C5.49160938,35.0073404 5.52053906,34.1264149 5.57390625,33.3708191 C5.74604688,30.9336702 6.71366406,28.6878617 8.29850781,27.0468191 C9.89754687,25.3909468 12.03475,24.4790957 14.3164219,24.4790957 C16.5980937,24.4790957 18.7351172,25.3909468 20.3343359,27.0468191 C21.9191797,28.6878617 22.8867969,30.9336702 23.0589375,33.3708191 C23.112125,34.126234 23.1412344,35.0069787 23.1717812,35.9394468 C23.1744766,36.0195638 23.1771719,36.100766 23.1798672,36.1814255 C21.7136172,33.907766 19.4491953,32.2321809 16.5233437,31.2859681 C13.8203047,30.4119149 11.4955078,30.4659894 11.3973984,30.4685213 C11.0444922,30.4784681 10.7095547,30.6271277 10.4646406,30.8828511 L8.03310937,33.4209149 C7.51650781,33.9602128 7.53196094,34.8188936 8.06778906,35.3388404 C8.60361719,35.8587872 9.45677344,35.8430532 9.973375,35.3039362 L11.9966562,33.1921383 C13.7390859,33.2778617 19.3447969,33.9339894 21.5249453,38.7657872 C20.9763594,42.326383 17.9356875,44.9707872 14.3167812,44.9707872 Z M19.9864609,47.5310957 L19.9866406,45.913383 C21.5544141,44.8270106 22.8009063,43.2988191 23.5446328,41.4917553 C23.7061719,42.6596915 23.9446172,43.7661383 24.3118984,44.7322447 C23.7751719,45.3905426 22.5047813,46.6185213 19.9864609,47.5310957 Z M32.9552266,25.5262234 L32.9552266,22.1609468 C32.9552266,21.956766 32.9094063,21.755117 32.8211797,21.5711915 C31.9540078,19.763766 31.5143125,17.8460213 31.5143125,15.8711277 L31.5143125,12.9706383 C31.5143125,7.32103191 36.0810703,2.72488298 41.6941484,2.72488298 L60.5198281,2.72488298 L60.5198281,15.8713085 C60.5198281,17.8462021 60.0801328,19.7639468 59.2129609,21.5713723 C59.1247344,21.7552979 59.0789141,21.9569468 59.0789141,22.1611277 L59.0789141,26.0232021 C59.0789141,29.6964681 57.6117656,33.1035213 54.9477187,35.6168085 C54.6151172,35.9304043 54.2699375,36.2244681 53.9130781,36.4984574 C53.9051719,36.503883 53.897625,36.5098511 53.8898984,36.5154574 C51.3942187,38.4225319 48.337375,39.3493936 45.1450469,39.141234 C38.3095547,38.6957979 32.9552266,32.7154149 32.9552266,25.5262234 Z M40.54325,52.8186383 C40.5339063,52.8280426 40.5121641,52.8502872 40.4681406,52.8455851 C40.4242969,52.8412447 40.4070469,52.815383 40.3996797,52.8041702 L36.2084688,46.4765532 L37.5572031,45.0501809 L43.9154453,49.4244255 L40.54325,52.8186383 Z M46.0170703,47.584266 L38.7190625,42.5634787 L38.7190625,40.0315638 C40.6073984,41.0589787 42.7217813,41.7015426 44.9705703,41.8480319 C45.3258125,41.8711809 45.6788984,41.8825745 46.0309063,41.8825745 C48.6078047,41.8825745 51.0878516,41.262617 53.3150781,40.0858191 L53.3150781,42.5634787 L46.0170703,47.584266 Z M51.6344609,52.8045319 C51.6270937,52.8157447 51.6098437,52.8416064 51.566,52.8459468 C51.5219766,52.8515532 51.5004141,52.8282234 51.4908906,52.819 L48.1186953,49.4249681 L54.4769375,45.0505426 L55.8258516,46.4769149 L51.6344609,52.8045319 Z M76.2428437,51.6601064 L73.1845625,48.5822021 C73.2379297,48.338234 73.2681172,48.071117 73.2679375,47.7765106 L73.2677578,47.204117 C74.1164219,47.4844362 75.0109062,47.6508191 75.9364766,47.6786702 C76.0403359,47.6819255 76.1432969,47.6833723 76.2467969,47.6833723 C77.2695781,47.6833723 78.2679219,47.5278404 79.2181094,47.2310638 L79.2181094,47.777234 C79.2181094,48.0477872 79.2518906,48.3129149 79.3155,48.567734 L76.2428437,51.6601064 Z M81.3249453,42.8971489 C79.8966094,44.292234 78.0097109,45.0290213 76.0175156,44.9671702 C72.1175781,44.8494362 68.9448359,41.3921064 68.9448359,37.2605638 L68.9448359,34.7248511 C68.9448359,34.5141596 68.8961406,34.3065426 68.8025234,34.1182766 L67.9700313,32.4425106 C67.6651016,31.8285213 67.5039219,31.1412872 67.5039219,30.4547766 L67.5039219,30.3739362 C67.5039219,27.1233191 70.1314922,24.4789149 73.3610156,24.4789149 L84.9819453,24.4789149 L84.9819453,30.1124255 C84.9819453,31.0228298 84.7681172,31.9345 84.3636406,32.7488723 L83.6833438,34.1182766 C83.5897266,34.3067234 83.5410313,34.5141596 83.5410313,34.7248511 L83.5410313,37.6253404 C83.5410313,39.6291702 82.754,41.5013404 81.3249453,42.8971489 Z" id="Shape" fill-rule="nonzero"></path>
                            <path d="M84.8885078,56.5727447 C84.1442422,56.5727447 83.5408516,57.1800426 83.5408516,57.9291277 L83.5408516,66.6307766 C83.5408516,67.3798617 84.1442422,67.9871596 84.8885078,67.9871596 C85.6327734,67.9871596 86.2361641,67.3798617 86.2361641,66.6307766 L86.2361641,57.9291277 C86.2361641,57.1802234 85.6327734,56.5727447 84.8885078,56.5727447 Z" id="Path"></path>
                            <path d="M7.11149219,58.3657021 C6.36722656,58.3657021 5.76383594,58.973 5.76383594,59.7220851 L5.76383594,66.6307766 C5.76383594,67.3798617 6.36722656,67.9871596 7.11149219,67.9871596 C7.85575781,67.9871596 8.45914844,67.3798617 8.45914844,66.6307766 L8.45914844,59.7220851 C8.45914844,58.9731809 7.85575781,58.3657021 7.11149219,58.3657021 Z" id="Path"></path>
                            <path d="M57.0565313,16.3625 C51.9595156,11.2324787 41.2952422,12.213234 36.9464453,12.8729787 C35.5766875,13.0807766 34.5826563,14.2474468 34.5826563,15.6470532 L34.5826563,18.7717979 C34.5826563,19.520883 35.1860469,20.1281809 35.9303125,20.1281809 C36.6745781,20.1281809 37.2779688,19.520883 37.2779688,18.7717979 L37.2779688,15.6468723 C37.2779688,15.6007553 37.3081563,15.5613298 37.3484063,15.5551809 C39.0854453,15.2916809 42.5323906,14.8851277 46.1036797,15.1247553 C50.3062109,15.4063404 53.3501172,16.468117 55.1507656,18.2806064 C55.6770703,18.8103191 56.5304063,18.8103191 57.0565313,18.2806064 C57.5828359,17.7508936 57.5828359,16.8920319 57.0565313,16.3625 Z" id="Path"></path>
                            <path d="M30.1666563,59.4734149 C29.4223906,59.4734149 28.819,60.0807128 28.819,60.8297979 L28.819,66.6309574 C28.819,67.3800426 29.4223906,67.9873404 30.1666563,67.9873404 C30.9109219,67.9873404 31.5143125,67.3800426 31.5143125,66.6309574 L31.5143125,60.8297979 C31.5143125,60.0808936 30.9109219,59.4734149 30.1666563,59.4734149 Z" id="Path"></path>
                            <path d="M61.8674844,59.4734149 C61.1232187,59.4734149 60.5198281,60.0807128 60.5198281,60.8297979 L60.5198281,66.6309574 C60.5198281,67.3800426 61.1232187,67.9873404 61.8674844,67.9873404 C62.61175,67.9873404 63.2151406,67.3800426 63.2151406,66.6309574 L63.2151406,60.8297979 C63.2151406,60.0808936 62.61175,59.4734149 61.8674844,59.4734149 Z" id="Path"></path>
                        </g>
                    </g>
                </g>
            </g>
        </g>
    </g>
</svg>
