<?xml version="1.0" encoding="UTF-8"?>
<svg width="20px" height="25px" viewBox="0 0 20 25" version="1.1" xmlns="http://www.w3.org/2000/svg" xmlns:xlink="http://www.w3.org/1999/xlink">
    <!-- Generator: Sketch 52.2 (67145) - http://www.bohemiancoding.com/sketch -->
    <title>flaticon1539089295-svg</title>
    <desc>Created with Sketch.</desc>
    <g id="Pages" stroke="none" stroke-width="1" fill="none" fill-rule="evenodd">
        <g id="Homepage#notLogined" transform="translate(-30.000000, -2971.000000)" fill-rule="nonzero">
            <g id="Group" transform="translate(0.000000, 2948.000000)">
                <rect id="Rectangle-8" fill-opacity="0.8" fill="#EAEAEA" x="0" y="9" width="320" height="54"></rect>
                <g id="flaticon1539089295-svg" transform="translate(30.000000, 23.000000)" fill="#4A4A4A">
                    <path d="M12.2973901,8.42857143 L2.14472135,8.42857143 C2.03620487,8.42857143 1.94848901,8.54032143 1.94848901,8.67857143 C1.94848901,8.81682143 2.03620487,8.92857143 2.14472135,8.92857143 L12.2973901,8.92857143 C12.4059066,8.92857143 12.4936224,8.81682143 12.4936224,8.67857143 C12.4936224,8.54032143 12.4059066,8.42857143 12.2973901,8.42857143 Z" id="Shape"></path>
                    <path d="M12.2973901,10.3441915 L2.14472135,10.3441915 C2.03620487,10.3441915 1.94848901,10.4559415 1.94848901,10.5941915 C1.94848901,10.7324415 2.03620487,10.8441915 2.14472135,10.8441915 L12.2973901,10.8441915 C12.4059066,10.8441915 12.4936224,10.7324415 12.4936224,10.5941915 C12.4936224,10.4559415 12.4059066,10.3441915 12.2973901,10.3441915 Z" id="Shape"></path>
                    <path d="M12.2973901,12.2600078 L2.14472135,12.2600078 C2.03620487,12.2600078 1.94848901,12.3717578 1.94848901,12.5100078 C1.94848901,12.6482578 2.03620487,12.7600078 2.14472135,12.7600078 L12.2973901,12.7600078 C12.4059066,12.7600078 12.4936224,12.6482578 12.4936224,12.5100078 C12.4936224,12.3717578 12.4059066,12.2600078 12.2973901,12.2600078 Z" id="Shape"></path>
                    <path d="M12.2973901,14.1754317 L2.14472135,14.1754317 C2.03620487,14.1754317 1.94848901,14.2871817 1.94848901,14.4254317 C1.94848901,14.5636817 2.03620487,14.6754317 2.14472135,14.6754317 L12.2973901,14.6754317 C12.4059066,14.6754317 12.4936224,14.5636817 12.4936224,14.4254317 C12.4936224,14.2871817 12.4059066,14.1754317 12.2973901,14.1754317 Z" id="Shape"></path>
                    <path d="M17.0862441,16.0910518 L9.99852826,16.0910518 C9.89001177,16.0910518 9.80229592,16.2028018 9.80229592,16.3410518 C9.80229592,16.4793018 9.89001177,16.5910518 9.99852826,16.5910518 L17.0862441,16.5910518 C17.1947606,16.5910518 17.2824765,16.4793018 17.2824765,16.3410518 C17.2824765,16.2028018 17.1947606,16.0910518 17.0862441,16.0910518 Z" id="Shape"></path>
                    <path d="M17.0862441,18.0066719 L9.99852826,18.0066719 C9.89001177,18.0066719 9.80229592,18.1184219 9.80229592,18.2566719 C9.80229592,18.3949219 9.89001177,18.5066719 9.99852826,18.5066719 L17.0862441,18.5066719 C17.1947606,18.5066719 17.2824765,18.3949219 17.2824765,18.2566719 C17.2824765,18.1184219 17.1947606,18.0066719 17.0862441,18.0066719 Z" id="Shape"></path>
                    <path d="M17.0862441,19.9220958 L9.99852826,19.9220958 C9.89001177,19.9220958 9.80229592,20.0338458 9.80229592,20.1720958 C9.80229592,20.3103458 9.89001177,20.4220958 9.99852826,20.4220958 L17.0862441,20.4220958 C17.1947606,20.4220958 17.2824765,20.3103458 17.2824765,20.1720958 C17.2824765,20.0338458 17.1947606,19.9220958 17.0862441,19.9220958 Z" id="Shape"></path>
                    <path d="M17.0862441,21.8379121 L9.99852826,21.8379121 C9.89001177,21.8379121 9.80229592,21.9496621 9.80229592,22.0879121 C9.80229592,22.2261621 9.89001177,22.3379121 9.99852826,22.3379121 L17.0862441,22.3379121 C17.1947606,22.3379121 17.2824765,22.2261621 17.2824765,22.0879121 C17.2824765,21.9496621 17.1947606,21.8379121 17.0862441,21.8379121 Z" id="Shape"></path>
                    <path d="M17.0862441,8.42857143 L14.0212912,8.42857143 C13.9127747,8.42857143 13.8250589,8.54032143 13.8250589,8.67857143 C13.8250589,8.81682143 13.9127747,8.92857143 14.0212912,8.92857143 L17.0862441,8.92857143 C17.1947606,8.92857143 17.2824765,8.81682143 17.2824765,8.67857143 C17.2824765,8.54032143 17.1947606,8.42857143 17.0862441,8.42857143 Z" id="Shape"></path>
                    <path d="M17.0862441,10.3441915 L14.0212912,10.3441915 C13.9127747,10.3441915 13.8250589,10.4559415 13.8250589,10.5941915 C13.8250589,10.7324415 13.9127747,10.8441915 14.0212912,10.8441915 L17.0862441,10.8441915 C17.1947606,10.8441915 17.2824765,10.7324415 17.2824765,10.5941915 C17.2824765,10.4559415 17.1947606,10.3441915 17.0862441,10.3441915 Z" id="Shape"></path>
                    <path d="M17.0862441,12.2600078 L14.0212912,12.2600078 C13.9127747,12.2600078 13.8250589,12.3717578 13.8250589,12.5100078 C13.8250589,12.6482578 13.9127747,12.7600078 14.0212912,12.7600078 L17.0862441,12.7600078 C17.1947606,12.7600078 17.2824765,12.6482578 17.2824765,12.5100078 C17.2824765,12.3717578 17.1947606,12.2600078 17.0862441,12.2600078 Z" id="Shape"></path>
                    <path d="M17.0862441,14.1754317 L14.0212912,14.1754317 C13.9127747,14.1754317 13.8250589,14.2871817 13.8250589,14.4254317 C13.8250589,14.5636817 13.9127747,14.6754317 14.0212912,14.6754317 L17.0862441,14.6754317 C17.1947606,14.6754317 17.2824765,14.5636817 17.2824765,14.4254317 C17.2824765,14.2871817 17.1947606,14.1754317 17.0862441,14.1754317 Z" id="Shape"></path>
                    <path d="M18.586146,0 L0.579474097,0 C0.260007849,0 0,0.259811617 0,0.579277865 L0,23.9497645 C0,24.2692308 0.260007849,24.5290424 0.579474097,24.5290424 L18.586146,24.5290424 C18.9056122,24.5290424 19.1654239,24.2692308 19.1654239,23.9497645 L19.1654239,0.579277865 C19.1654239,0.259811617 18.9056122,0 18.586146,0 Z M18.7729592,23.9497645 C18.7729592,24.0527865 18.689168,24.1365777 18.586146,24.1365777 L0.579474097,24.1365777 C0.476452119,24.1365777 0.392464678,24.0527865 0.392464678,23.9497645 L0.392464678,0.579277865 C0.392464678,0.476255887 0.476452119,0.392464678 0.579474097,0.392464678 L18.586146,0.392464678 C18.689168,0.392464678 18.7729592,0.476255887 18.7729592,0.579277865 L18.7729592,23.9497645 Z" id="Shape"></path>
                    <path d="M17.0864403,2.29866562 L2.14472135,2.29866562 C2.03620487,2.29866562 1.94848901,2.38638148 1.94848901,2.49489796 L1.94848901,6.70918367 C1.94848901,6.81770016 2.03620487,6.90541601 2.14472135,6.90541601 L17.0862441,6.90541601 C17.1947606,6.90541601 17.2824765,6.81770016 17.2826727,6.70918367 L17.2826727,2.49489796 C17.2826727,2.38638148 17.1949568,2.29866562 17.0864403,2.29866562 Z M16.890208,6.51295133 L2.34095369,6.51295133 L2.34095369,2.6911303 L16.890208,2.6911303 L16.890208,6.51295133 Z" id="Shape"></path>
                    <path d="M7.89158163,16.0910518 L2.14472135,16.0910518 C2.03620487,16.0910518 1.94848901,16.1787677 1.94848901,16.2872841 L1.94848901,22.0341444 C1.94848901,22.1426609 2.03620487,22.2303768 2.14472135,22.2303768 L7.89158163,22.2303768 C8.00009812,22.2303768 8.08781397,22.1426609 8.08781397,22.0341444 L8.08781397,16.2872841 C8.08781397,16.1787677 8.00009812,16.0910518 7.89158163,16.0910518 Z M7.69534929,21.8379121 L2.34095369,21.8379121 L2.34095369,16.4835165 L7.69534929,16.4835165 L7.69534929,21.8379121 Z" id="Shape"></path>
                </g>
            </g>
        </g>
    </g>
</svg>