<svg xmlns="http://www.w3.org/2000/svg" xmlns:xlink="http://www.w3.org/1999/xlink" viewBox="241.499 321.806 172.77 162.25">
  <defs>
    <style>
      .cls-1 {
        fill: url(#linear-gradient);
      }

      .cls-2 {
        fill: url(#linear-gradient-2);
      }
    </style>
    <linearGradient id="linear-gradient" y1="0.5" x2="0.999" y2="0.5" gradientUnits="objectBoundingBox">
      <stop offset="0" stop-color="#92278f"/>
      <stop offset="1" stop-color="#ef4136"/>
    </linearGradient>
    <linearGradient id="linear-gradient-2" y1="0.498" x2="0.999" y2="0.498" gradientUnits="objectBoundingBox">
      <stop offset="0" stop-color="#ef4136"/>
      <stop offset="1" stop-color="#92278f"/>
    </linearGradient>
  </defs>
  <g id="Xperta_1" data-name="Xperta 1" transform="translate(241.499 321.806)">
    <g id="Group_1" data-name="Group 1" transform="translate(38.95)">
      <path id="Path_1" data-name="Path 1" class="cls-1" d="M81.393,90.579V86.8h8.284a4.9,4.9,0,0,0,4.5-6.663L75.631,37.456a4.85,4.85,0,0,0-8.824,0L48.259,80.134a4.72,4.72,0,0,0,4.5,6.663h8.1v3.782a18.061,18.061,0,0,1-18.008,18.008H39.616A18.105,18.105,0,0,1,23.048,83.376L54.562,10.8A18.2,18.2,0,0,1,71.129,0h0A18.2,18.2,0,0,1,87.7,10.8L119.21,83.376a18.036,18.036,0,0,1-16.567,25.211H99.4A18.061,18.061,0,0,1,81.393,90.579Z" transform="translate(-21.59)"/>
    </g>
    <path id="Path_2" data-name="Path 2" class="cls-2" d="M48.472,75H33.166a2.77,2.77,0,0,0-2.7,2.7h0a2.77,2.77,0,0,0,2.7,2.7H47.572c3.061,0,4.5.9,4.5,2.7s-1.441,2.7-4.5,2.7h-8.1a2.77,2.77,0,0,0-2.7,2.7v10.8a2.77,2.77,0,0,0,2.7,2.7h0a2.77,2.77,0,0,0,2.7-2.7v-5.4a2.77,2.77,0,0,1,2.7-2.7h3.421c5.943,0,9-2.7,9-8.1C57.476,77.7,54.415,75,48.472,75ZM86.109,85.8H64.5a2.77,2.77,0,0,0-2.7,2.7v10.8a2.77,2.77,0,0,0,2.7,2.7H86.289a2.77,2.77,0,0,0,2.7-2.7h0a2.77,2.77,0,0,0-2.7-2.7H70.082a2.77,2.77,0,0,1-2.7-2.7h0a2.77,2.77,0,0,1,2.7-2.7H86.289a2.77,2.77,0,0,0,2.7-2.7h0A2.935,2.935,0,0,0,86.109,85.8Zm0-10.8H64.5a2.77,2.77,0,0,0-2.7,2.7h0a2.77,2.77,0,0,0,2.7,2.7H86.289a2.77,2.77,0,0,0,2.7-2.7h0A2.935,2.935,0,0,0,86.109,75ZM23.082,79.5A2.77,2.77,0,0,0,20.921,75h0a3.322,3.322,0,0,0-2.161.9L13.9,81.843a2.741,2.741,0,0,1-4.142,0L4.894,75.9A2.982,2.982,0,0,0,2.733,75h0A2.77,2.77,0,0,0,.572,79.5l6.123,7.383a2.5,2.5,0,0,1,0,3.421L.572,97.69a2.77,2.77,0,0,0,2.161,4.5h0a3.322,3.322,0,0,0,2.161-.9l4.862-5.943a2.741,2.741,0,0,1,4.142,0l4.862,5.943a2.982,2.982,0,0,0,2.161.9h0a2.77,2.77,0,0,0,2.161-4.5l-6.123-7.383a2.5,2.5,0,0,1,0-3.421Zm126.774-1.8h0a2.77,2.77,0,0,0-2.7-2.7H125.366a2.77,2.77,0,0,0-2.7,2.7h0a2.77,2.77,0,0,0,2.7,2.7h5.4a2.77,2.77,0,0,1,2.7,2.7V99.31a2.769,2.769,0,0,0,2.7,2.7h0a2.77,2.77,0,0,0,2.7-2.7V83.1a2.769,2.769,0,0,1,2.7-2.7h5.4A2.81,2.81,0,0,0,149.856,77.7ZM109.7,75H97.093a2.77,2.77,0,0,0-2.7,2.7h0a2.77,2.77,0,0,0,2.7,2.7H108.8c3.061,0,4.5.9,4.5,2.7s-1.441,2.7-4.5,2.7H97.093a2.77,2.77,0,0,0-2.7,2.7h0a2.77,2.77,0,0,0,2.7,2.7h1.621a2.312,2.312,0,0,1,1.8.72l11.165,9.544a3.2,3.2,0,0,0,1.8.72,2.683,2.683,0,0,0,1.8-4.682l-7.2-6.3H109.7c5.943,0,9-2.7,9-8.1S115.821,75,109.7,75Zm53.123,22.69v-1.08H164.8a1.144,1.144,0,0,0,1.08-1.621L161.2,84.364a1.2,1.2,0,0,0-2.161,0l-4.682,10.625a1.144,1.144,0,0,0,1.08,1.621h1.981v.9a4.458,4.458,0,0,1-4.5,4.5h-.72a4.5,4.5,0,0,1-4.142-6.3l7.923-18.188A5.232,5.232,0,0,1,160.3,75h0a4.55,4.55,0,0,1,4.142,2.7l7.923,18.188a4.549,4.549,0,0,1-4.142,6.3h-.72A4.614,4.614,0,0,1,162.822,97.69Z" transform="translate(0.04 60.058)"/>
  </g>
</svg>
